<svg class="main-svg" xmlns="http://www.w3.org/2000/svg" xmlns:xlink="http://www.w3.org/1999/xlink" width="800" height="500" style="" viewBox="0 0 800 500"><rect x="0" y="0" width="800" height="500" style="fill: rgb(255, 255, 255); fill-opacity: 1;"/><defs id="defs-60a64d"><g class="clips"><clipPath id="clip60a64dxyplot" class="plotclip"><rect width="304.99999999999994" height="320"/></clipPath><clipPath class="axesclip" id="clip60a64dx"><rect x="247.50000000000003" y="0" width="304.99999999999994" height="500"/></clipPath><clipPath class="axesclip" id="clip60a64dy"><rect x="0" y="100" width="800" height="320"/></clipPath><clipPath class="axesclip" id="clip60a64dxy"><rect x="247.50000000000003" y="100" width="304.99999999999994" height="320"/></clipPath></g><g class="gradients"/><g class="patterns"/></defs><g class="bglayer"><rect class="bg" x="247.50000000000003" y="100" width="304.99999999999994" height="320" style="fill: rgb(229, 236, 246); fill-opacity: 1; stroke-width: 0;"/></g><g class="layer-below"><g class="imagelayer"/><g class="shapelayer"/></g><g class="cartesianlayer"><g class="subplot xy"><g class="layer-subplot"><g class="shapelayer"/><g class="imagelayer"/></g><g class="minor-gridlayer"><g class="x"/><g class="y"/></g><g class="gridlayer"><g class="x"><path class="xgrid crisp" transform="translate(400,0)" d="M0,100v320" style="stroke: rgb(255, 255, 255); stroke-opacity: 1; stroke-width: 1px;"/></g><g class="y"><path class="ygrid crisp" transform="translate(0,358.4)" d="M247.50000000000003,0h304.99999999999994" style="stroke: rgb(255, 255, 255); stroke-opacity: 1; stroke-width: 1px;"/><path class="ygrid crisp" transform="translate(0,297.8)" d="M247.50000000000003,0h304.99999999999994" style="stroke: rgb(255, 255, 255); stroke-opacity: 1; stroke-width: 1px;"/><path class="ygrid crisp" transform="translate(0,237.2)" d="M247.50000000000003,0h304.99999999999994" style="stroke: rgb(255, 255, 255); stroke-opacity: 1; stroke-width: 1px;"/><path class="ygrid crisp" transform="translate(0,176.6)" d="M247.50000000000003,0h304.99999999999994" style="stroke: rgb(255, 255, 255); stroke-opacity: 1; stroke-width: 1px;"/><path class="ygrid crisp" transform="translate(0,116)" d="M247.50000000000003,0h304.99999999999994" style="stroke: rgb(255, 255, 255); stroke-opacity: 1; stroke-width: 1px;"/></g></g><g class="zerolinelayer"><path class="xzl zl crisp" transform="translate(248.50000000000003,0)" d="M0,100v320" style="stroke: rgb(255, 255, 255); stroke-opacity: 1; stroke-width: 2px;"/><path class="yzl zl crisp" transform="translate(0,419)" d="M247.50000000000003,0h304.99999999999994" style="stroke: rgb(255, 255, 255); stroke-opacity: 1; stroke-width: 2px;"/></g><path class="xlines-below"/><path class="ylines-below"/><g class="overlines-below"/><g class="xaxislayer-below"/><g class="yaxislayer-below"/><g class="overaxes-below"/><g class="plot" transform="translate(247.50000000000003,100)" clip-path="url(#clip60a64dxyplot)"><g class="scatterlayer mlayer"><g class="trace scatter trace3e0916" style="stroke-miterlimit: 2;"><g class="fills"><g><path class="js-fill" d="M304,319L1,319L1,319L1.72,280.3L1.87,280.3L2.59,257.16L2.73,257.16L3.31,246.79L3.6,246.79L4.32,240.23L4.47,240.23L5.05,236.43L5.34,236.43L6.06,229.17L6.2,229.17L6.78,214.31L7.22,214.31L7.94,209.48L8.08,209.48L8.52,207.4L9.24,207.4L9.67,200.84L10.11,200.84L10.83,199.8L10.97,199.8L11.55,193.24L11.84,193.24L12.56,186.33L12.71,186.33L13.43,177.35L13.72,177.35L14.44,172.16L14.59,172.16L15.31,169.75L15.75,169.75L16.18,165.6L16.61,165.6L17.34,160.07L17.48,160.07L18.2,155.93L18.64,155.93L19.21,154.54L19.65,154.54L19.65,154.2L20.8,154.2L21.24,146.94L21.67,146.94L22.4,142.11L22.68,142.11L23.26,138.31L23.55,138.31L24.13,136.92L25,136.92L25.72,132.43L25.86,132.43L26.3,131.05L27.17,131.05L27.89,127.25L28.32,127.25L29.04,122.07L29.19,122.07L29.91,119.3L30.2,119.3L30.92,116.19L31.07,116.19L31.65,114.47L31.94,114.47L32.37,113.43L32.8,113.43L33.38,111.36L33.67,111.36L34.1,109.97L34.68,109.97L35.41,108.25L35.98,108.25L36.42,107.56L37.28,107.56L38.01,106.87L38.15,106.87L38.73,105.14L39.45,105.14L39.6,104.45L40.9,104.45L41.48,103.41L41.77,103.41L42.34,102.72L42.78,102.72L43.5,99.96L43.79,99.96L44.22,98.57L44.66,98.57L44.95,96.5L45.81,96.5L46.54,95.46L46.68,95.46L47.26,94.77L48.13,94.77L48.42,94.08L49.28,94.08L49.28,93.74L50.3,93.74L51.02,90.97L52.61,90.97L52.75,89.59L53.76,89.59L54.49,88.21L54.78,88.21L55.21,86.83L56.22,86.83L56.37,86.14L57.96,86.14L58.54,84.41L58.82,84.41L59.11,82.68L59.84,82.68L59.84,82.34L61.14,82.34L61.72,80.61L62.44,80.61L62.73,79.57L64.61,79.57L65.33,76.46L65.47,76.46L66.2,75.43L66.34,75.43L67.06,73.7L67.64,73.7L67.64,73.35L68.51,73.35L68.94,71.97L69.67,71.97L70.24,71.28L70.97,71.28L70.97,70.93L71.83,70.93L71.98,70.24L73.14,70.24L73.57,68.86L74,68.86L74.44,67.48L75.16,67.48L75.88,66.79L76.17,66.79L76.46,66.1L77.04,66.1L77.62,65.41L78.05,65.41L78.63,64.37L79.06,64.37L79.64,62.3L79.93,62.3L79.93,61.95L80.94,61.95L81.38,61.26L81.81,61.26L82.53,60.57L82.68,60.57L82.97,59.19L83.54,59.19L83.98,57.81L84.99,57.81L85.28,57.11L86.15,57.11L86.44,55.73L87.01,55.73L87.01,55.39L88.03,55.39L88.03,55.04L89.76,55.04L89.76,54.7L90.92,54.7L90.92,54.35L92.07,54.35L92.8,53.31L96.41,53.31L96.55,52.28L97.57,52.28L98.15,51.59L98.58,51.59L99.16,49.51L100.02,49.51L100.02,49.17L102.05,49.17L102.19,48.13L103.2,48.13L103.93,46.4L104.51,46.4L104.51,46.06L105.37,46.06L106.1,45.37L106.39,45.37L106.82,44.68L107.54,44.68L107.54,44.33L109.85,44.33L110.29,42.6L111.44,42.6L112.02,41.91L112.75,41.91L113.47,40.53L113.61,40.53L113.61,40.18L115.35,40.18L115.93,39.49L116.5,39.49L116.79,37.77L119.11,37.77L119.68,36.73L120.41,36.73L121.13,35.69L121.27,35.69L121.85,34.66L122.29,34.66L122.29,34.31L123.59,34.31L123.73,33.62L125.9,33.62L125.9,33.27L126.77,33.27L127.49,32.58L128.79,32.58L128.79,31.89L129.95,31.89L129.95,31.55L130.82,31.55L130.82,31.2L133.85,31.2L133.85,30.86L135.73,30.86L135.73,30.17L143.39,30.17L143.39,29.82L146.43,29.82L147.15,28.09L150.91,28.09L150.91,27.75L157.56,27.75L157.56,27.4L163.78,27.4L164.35,26.71L168.55,26.71L169.12,25.67L170.43,25.67L170.43,25.33L172.59,25.33L172.59,24.64L173.46,24.64L173.75,23.6L176.64,23.6L177.08,22.91L183.73,22.91L183.73,22.56L185.03,22.56L185.03,22.22L188.06,22.22L188.06,21.87L192.98,21.87L193.12,21.18L194.13,21.18L194.13,20.84L198.18,20.84L198.18,20.49L204.25,20.49L204.25,20.15L205.84,20.15L205.84,19.8L211.48,19.8L211.48,19.11L219.29,19.11L219.58,18.42L234.18,18.42L234.18,18.07L253.69,18.07L253.69,17.73L257.31,17.73L257.31,17.38L265.11,17.38L265.11,17.04L273.79,17.04L273.79,16.69L285.21,16.69L285.21,16.35L288.97,16.35L288.97,16L304,16" style="fill: rgb(99, 110, 250); fill-opacity: 0.5; stroke-width: 0;"/></g></g><g class="errorbars"/><g class="lines"><path class="js-line" d="M1,319L1.72,280.3L1.87,280.3L2.59,257.16L2.73,257.16L3.31,246.79L3.6,246.79L4.32,240.23L4.47,240.23L5.05,236.43L5.34,236.43L6.06,229.17L6.2,229.17L6.78,214.31L7.22,214.31L7.94,209.48L8.08,209.48L8.52,207.4L9.24,207.4L9.67,200.84L10.11,200.84L10.83,199.8L10.97,199.8L11.55,193.24L11.84,193.24L12.56,186.33L12.71,186.33L13.43,177.35L13.72,177.35L14.44,172.16L14.59,172.16L15.31,169.75L15.75,169.75L16.18,165.6L16.61,165.6L17.34,160.07L17.48,160.07L18.2,155.93L18.64,155.93L19.21,154.54L19.65,154.54L19.65,154.2L20.8,154.2L21.24,146.94L21.67,146.94L22.4,142.11L22.68,142.11L23.26,138.31L23.55,138.31L24.13,136.92L25,136.92L25.72,132.43L25.86,132.43L26.3,131.05L27.17,131.05L27.89,127.25L28.32,127.25L29.04,122.07L29.19,122.07L29.91,119.3L30.2,119.3L30.92,116.19L31.07,116.19L31.65,114.47L31.94,114.47L32.37,113.43L32.8,113.43L33.38,111.36L33.67,111.36L34.1,109.97L34.68,109.97L35.41,108.25L35.98,108.25L36.42,107.56L37.28,107.56L38.01,106.87L38.15,106.87L38.73,105.14L39.45,105.14L39.6,104.45L40.9,104.45L41.48,103.41L41.77,103.41L42.34,102.72L42.78,102.72L43.5,99.96L43.79,99.96L44.22,98.57L44.66,98.57L44.95,96.5L45.81,96.5L46.54,95.46L46.68,95.46L47.26,94.77L48.13,94.77L48.42,94.08L49.28,94.08L49.28,93.74L50.3,93.74L51.02,90.97L52.61,90.97L52.75,89.59L53.76,89.59L54.49,88.21L54.78,88.21L55.21,86.83L56.22,86.83L56.37,86.14L57.96,86.14L58.54,84.41L58.82,84.41L59.11,82.68L59.84,82.68L59.84,82.34L61.14,82.34L61.72,80.61L62.44,80.61L62.73,79.57L64.61,79.57L65.33,76.46L65.47,76.46L66.2,75.43L66.34,75.43L67.06,73.7L67.64,73.7L67.64,73.35L68.51,73.35L68.94,71.97L69.67,71.97L70.24,71.28L70.97,71.28L70.97,70.93L71.83,70.93L71.98,70.24L73.14,70.24L73.57,68.86L74,68.86L74.44,67.48L75.16,67.48L75.88,66.79L76.17,66.79L76.46,66.1L77.04,66.1L77.62,65.41L78.05,65.41L78.63,64.37L79.06,64.37L79.64,62.3L79.93,62.3L79.93,61.95L80.94,61.95L81.38,61.26L81.81,61.26L82.53,60.57L82.68,60.57L82.97,59.19L83.54,59.19L83.98,57.81L84.99,57.81L85.28,57.11L86.15,57.11L86.44,55.73L87.01,55.73L87.01,55.39L88.03,55.39L88.03,55.04L89.76,55.04L89.76,54.7L90.92,54.7L90.92,54.35L92.07,54.35L92.8,53.31L96.41,53.31L96.55,52.28L97.57,52.28L98.15,51.59L98.58,51.59L99.16,49.51L100.02,49.51L100.02,49.17L102.05,49.17L102.19,48.13L103.2,48.13L103.93,46.4L104.51,46.4L104.51,46.06L105.37,46.06L106.1,45.37L106.39,45.37L106.82,44.68L107.54,44.68L107.54,44.33L109.85,44.33L110.29,42.6L111.44,42.6L112.02,41.91L112.75,41.91L113.47,40.53L113.61,40.53L113.61,40.18L115.35,40.18L115.93,39.49L116.5,39.49L116.79,37.77L119.11,37.77L119.68,36.73L120.41,36.73L121.13,35.69L121.27,35.69L121.85,34.66L122.29,34.66L122.29,34.31L123.59,34.31L123.73,33.62L125.9,33.62L125.9,33.27L126.77,33.27L127.49,32.58L128.79,32.58L128.79,31.89L129.95,31.89L129.95,31.55L130.82,31.55L130.82,31.2L133.85,31.2L133.85,30.86L135.73,30.86L135.73,30.17L143.39,30.17L143.39,29.82L146.43,29.82L147.15,28.09L150.91,28.09L150.91,27.75L157.56,27.75L157.56,27.4L163.78,27.4L164.35,26.71L168.55,26.71L169.12,25.67L170.43,25.67L170.43,25.33L172.59,25.33L172.59,24.64L173.46,24.64L173.75,23.6L176.64,23.6L177.08,22.91L183.73,22.91L183.73,22.56L185.03,22.56L185.03,22.22L188.06,22.22L188.06,21.87L192.98,21.87L193.12,21.18L194.13,21.18L194.13,20.84L198.18,20.84L198.18,20.49L204.25,20.49L204.25,20.15L205.84,20.15L205.84,19.8L211.48,19.8L211.48,19.11L219.29,19.11L219.58,18.42L234.18,18.42L234.18,18.07L253.69,18.07L253.69,17.73L257.31,17.73L257.31,17.38L265.11,17.38L265.11,17.04L273.79,17.04L273.79,16.69L285.21,16.69L285.21,16.35L288.97,16.35L288.97,16L304,16" style="vector-effect: non-scaling-stroke; fill: none; stroke: rgb(99, 110, 250); stroke-opacity: 1; stroke-width: 2px; opacity: 1;"/></g><g class="points"/><g class="text"/></g></g></g><g class="overplot"/><path class="xlines-above crisp" d="M0,0" style="fill: none;"/><path class="ylines-above crisp" d="M0,0" style="fill: none;"/><g class="overlines-above"/><g class="xaxislayer-above"><g class="xtick"><text text-anchor="middle" x="0" y="433" transform="translate(248.50000000000003,0)" style="font-family: 'Open Sans', verdana, arial, sans-serif; font-size: 12px; fill: rgb(42, 63, 95); fill-opacity: 1; white-space: pre; opacity: 1;">0</text></g><g class="xtick"><text text-anchor="middle" x="0" y="433" style="font-family: 'Open Sans', verdana, arial, sans-serif; font-size: 12px; fill: rgb(42, 63, 95); fill-opacity: 1; white-space: pre; opacity: 1;" transform="translate(400,0)">0.5</text></g><g class="xtick"><text text-anchor="middle" x="0" y="433" style="font-family: 'Open Sans', verdana, arial, sans-serif; font-size: 12px; fill: rgb(42, 63, 95); fill-opacity: 1; white-space: pre; opacity: 1;" transform="translate(551.5,0)">1</text></g></g><g class="yaxislayer-above"><g class="ytick"><text text-anchor="end" x="246.50000000000003" y="4.199999999999999" transform="translate(0,419)" style="font-family: 'Open Sans', verdana, arial, sans-serif; font-size: 12px; fill: rgb(42, 63, 95); fill-opacity: 1; white-space: pre; opacity: 1;">0</text></g><g class="ytick"><text text-anchor="end" x="246.50000000000003" y="4.199999999999999" style="font-family: 'Open Sans', verdana, arial, sans-serif; font-size: 12px; fill: rgb(42, 63, 95); fill-opacity: 1; white-space: pre; opacity: 1;" transform="translate(0,358.4)">0.2</text></g><g class="ytick"><text text-anchor="end" x="246.50000000000003" y="4.199999999999999" style="font-family: 'Open Sans', verdana, arial, sans-serif; font-size: 12px; fill: rgb(42, 63, 95); fill-opacity: 1; white-space: pre; opacity: 1;" transform="translate(0,297.8)">0.4</text></g><g class="ytick"><text text-anchor="end" x="246.50000000000003" y="4.199999999999999" style="font-family: 'Open Sans', verdana, arial, sans-serif; font-size: 12px; fill: rgb(42, 63, 95); fill-opacity: 1; white-space: pre; opacity: 1;" transform="translate(0,237.2)">0.6</text></g><g class="ytick"><text text-anchor="end" x="246.50000000000003" y="4.199999999999999" style="font-family: 'Open Sans', verdana, arial, sans-serif; font-size: 12px; fill: rgb(42, 63, 95); fill-opacity: 1; white-space: pre; opacity: 1;" transform="translate(0,176.6)">0.8</text></g><g class="ytick"><text text-anchor="end" x="246.50000000000003" y="4.199999999999999" style="font-family: 'Open Sans', verdana, arial, sans-serif; font-size: 12px; fill: rgb(42, 63, 95); fill-opacity: 1; white-space: pre; opacity: 1;" transform="translate(0,116)">1</text></g></g><g class="overaxes-above"/></g></g><g class="polarlayer"/><g class="smithlayer"/><g class="ternarylayer"/><g class="geolayer"/><g class="funnelarealayer"/><g class="pielayer"/><g class="iciclelayer"/><g class="treemaplayer"/><g class="sunburstlayer"/><g class="glimages"/><defs id="topdefs-60a64d"><g class="clips"/></defs><g class="layer-above"><g class="imagelayer"/><g class="shapelayer"><path data-index="0" fill-rule="evenodd" d="M248.50000000000003,419L551.5,116" clip-path="url(#clip60a64dxy)" style="opacity: 1; stroke: rgb(42, 63, 95); stroke-opacity: 1; fill: rgb(0, 0, 0); fill-opacity: 0; stroke-dasharray: 9px, 9px; stroke-width: 2px;"/></g></g><g class="infolayer"><g class="g-gtitle"><text class="gtitle" x="40" y="50" text-anchor="start" dy="0em" style="font-family: 'Open Sans', verdana, arial, sans-serif; font-size: 17px; fill: rgb(42, 63, 95); opacity: 1; font-weight: normal; white-space: pre;">ROC Curve (AUC=0.8828)</text></g><g class="g-xtitle"><text class="xtitle" x="400" y="460.3" text-anchor="middle" style="font-family: 'Open Sans', verdana, arial, sans-serif; font-size: 14px; fill: rgb(42, 63, 95); opacity: 1; font-weight: normal; white-space: pre;">False Positive Rate</text></g><g class="g-ytitle"><text class="ytitle" transform="rotate(-90,202.075,260)" x="202.075" y="260" text-anchor="middle" style="font-family: 'Open Sans', verdana, arial, sans-serif; font-size: 14px; fill: rgb(42, 63, 95); opacity: 1; font-weight: normal; white-space: pre;">True Positive Rate</text></g></g></svg>