<svg class="main-svg" xmlns="http://www.w3.org/2000/svg" xmlns:xlink="http://www.w3.org/1999/xlink" width="800" height="500" style="" viewBox="0 0 800 500"><rect x="0" y="0" width="800" height="500" style="fill: rgb(255, 255, 255); fill-opacity: 1;"/><defs id="defs-c81767"><g class="clips"><clipPath id="clipc81767xyplot" class="plotclip"><rect width="304.99999999999994" height="320"/></clipPath><clipPath class="axesclip" id="clipc81767x"><rect x="247.50000000000003" y="0" width="304.99999999999994" height="500"/></clipPath><clipPath class="axesclip" id="clipc81767y"><rect x="0" y="100" width="800" height="320"/></clipPath><clipPath class="axesclip" id="clipc81767xy"><rect x="247.50000000000003" y="100" width="304.99999999999994" height="320"/></clipPath></g><g class="gradients"/><g class="patterns"/></defs><g class="bglayer"><rect class="bg" x="247.50000000000003" y="100" width="304.99999999999994" height="320" style="fill: rgb(229, 236, 246); fill-opacity: 1; stroke-width: 0;"/></g><g class="layer-below"><g class="imagelayer"/><g class="shapelayer"/></g><g class="cartesianlayer"><g class="subplot xy"><g class="layer-subplot"><g class="shapelayer"/><g class="imagelayer"/></g><g class="minor-gridlayer"><g class="x"/><g class="y"/></g><g class="gridlayer"><g class="x"><path class="xgrid crisp" transform="translate(400,0)" d="M0,100v320" style="stroke: rgb(255, 255, 255); stroke-opacity: 1; stroke-width: 1px;"/></g><g class="y"><path class="ygrid crisp" transform="translate(0,358.4)" d="M247.50000000000003,0h304.99999999999994" style="stroke: rgb(255, 255, 255); stroke-opacity: 1; stroke-width: 1px;"/><path class="ygrid crisp" transform="translate(0,297.8)" d="M247.50000000000003,0h304.99999999999994" style="stroke: rgb(255, 255, 255); stroke-opacity: 1; stroke-width: 1px;"/><path class="ygrid crisp" transform="translate(0,237.2)" d="M247.50000000000003,0h304.99999999999994" style="stroke: rgb(255, 255, 255); stroke-opacity: 1; stroke-width: 1px;"/><path class="ygrid crisp" transform="translate(0,176.6)" d="M247.50000000000003,0h304.99999999999994" style="stroke: rgb(255, 255, 255); stroke-opacity: 1; stroke-width: 1px;"/><path class="ygrid crisp" transform="translate(0,116)" d="M247.50000000000003,0h304.99999999999994" style="stroke: rgb(255, 255, 255); stroke-opacity: 1; stroke-width: 1px;"/></g></g><g class="zerolinelayer"><path class="xzl zl crisp" transform="translate(248.50000000000003,0)" d="M0,100v320" style="stroke: rgb(255, 255, 255); stroke-opacity: 1; stroke-width: 2px;"/><path class="yzl zl crisp" transform="translate(0,419)" d="M247.50000000000003,0h304.99999999999994" style="stroke: rgb(255, 255, 255); stroke-opacity: 1; stroke-width: 2px;"/></g><path class="xlines-below"/><path class="ylines-below"/><g class="overlines-below"/><g class="xaxislayer-below"/><g class="yaxislayer-below"/><g class="overaxes-below"/><g class="plot" transform="translate(247.50000000000003,100)" clip-path="url(#clipc81767xyplot)"><g class="scatterlayer mlayer"><g class="trace scatter trace4b3324" style="stroke-miterlimit: 2;"><g class="fills"><g><path class="js-fill" d="M304,319L1,319L1,319L1.73,291.1L1.87,291.1L2.45,280.36L2.74,280.36L3.47,258.43L3.62,258.43L4.34,244.7L4.49,244.7L5.21,240.83L5.36,240.83L6.09,223.82L6.23,223.82L6.96,212.63L7.1,212.63L7.83,207.56L8.12,207.56L8.85,200.69L9.14,200.69L9.86,192.04L10.01,192.04L10.74,184.43L10.88,184.43L11.46,179.51L11.75,179.51L12.48,175.18L12.63,175.18L13.35,171.75L13.5,171.75L14.22,167.13L14.37,167.13L15.1,162.35L15.39,162.35L16.11,155.34L16.26,155.34L16.99,151.91L17.13,151.91L17.86,146.99L18,146.99L18.44,144.9L18.87,144.9L19.6,140.42L19.75,140.42L20.18,139.68L20.18,139.08L20.62,138.93L20.62,136.54L23.23,127.59L23.38,127.59L23.82,125.95L24.25,125.95L24.83,123.56L25.12,123.56L25.27,123.42L25.27,121.77L25.71,121.03L25.71,120.73L27.45,115.36L27.59,115.36L28.32,113.87L28.76,113.87L29.34,111.18L29.63,111.18L30.36,109.99L30.65,109.99L31.37,108.2L31.52,108.2L32.24,105.81L32.39,105.81L33.12,102.53L33.26,102.53L33.99,100.59L34.13,100.59L34.86,98.65L35.01,98.65L35.44,96.86L35.88,96.86L36.6,96.26L36.89,96.26L37.48,94.17L37.77,94.17L38.49,92.83L38.64,92.83L39.07,91.94L39.51,91.94L40.24,89.25L40.38,89.25L41.11,87.61L41.4,87.61L41.84,86.86L42.27,86.86L43,85.52L43.14,85.52L43.73,82.84L44.02,82.84L44.6,81.49L44.89,81.49L48.52,79.7L48.52,78.96L51.72,74.03L51.86,74.03L52.59,73.14L52.74,73.14L53.32,72.39L53.61,72.39L54.19,70.6L54.77,70.6L55.35,69.71L56.51,69.71L57.68,67.77L57.68,67.47L58.55,66.28L58.84,66.28L59.57,63.44L59.71,63.44L62.04,61.5L62.62,61.5L63.34,60.46L63.63,60.46L64.36,59.71L64.65,59.71L66.4,58.67L66.4,58.07L70.32,53.3L71.92,53.3L73.95,51.66L73.95,50.91L76.13,49.42L76.86,49.42L78.17,47.33L78.17,46.88L79.18,46.58L79.18,45.99L80.35,45.24L80.35,44.94L84.13,44.2L84.13,43.9L85.14,43L85.72,43L88.63,41.81L88.63,41.66L93.28,40.91L93.28,40.77L94.44,40.02L94.44,39.72L96.91,38.97L96.91,38.83L99.09,38.08L99.09,37.93L100.84,37.18L100.84,36.59L102.58,35.84L102.58,35.54L105.2,34.8L105.2,34.65L106.36,34.2L106.36,33.75L109.85,33.01L109.85,32.86L111.45,32.11L111.45,31.81L114.64,31.07L114.64,30.92L117.69,30.17L117.69,30.02L122.2,29.28L122.2,29.13L127.72,28.38L127.72,28.23L132.23,27.49L132.23,27.34L135.57,26.59L135.57,26.44L141.53,25.7L141.53,25.55L148.94,24.8L148.94,24.65L153.74,23.91L153.74,23.76L159.4,23.16L159.4,22.86L166.09,22.12L166.09,21.82L172.63,21.07L172.63,20.92L177.86,20.18L177.86,20.03L190.65,19.28L190.65,19.13L190.79,18.98L192.1,18.98L192.1,18.83L194.43,18.83L211.14,16.75L220.29,16.75L304,16" style="fill: rgb(99, 110, 250); fill-opacity: 0.5; stroke-width: 0;"/></g></g><g class="errorbars"/><g class="lines"><path class="js-line" d="M1,319L1.73,291.1L1.87,291.1L2.45,280.36L2.74,280.36L3.47,258.43L3.62,258.43L4.34,244.7L4.49,244.7L5.21,240.83L5.36,240.83L6.09,223.82L6.23,223.82L6.96,212.63L7.1,212.63L7.83,207.56L8.12,207.56L8.85,200.69L9.14,200.69L9.86,192.04L10.01,192.04L10.74,184.43L10.88,184.43L11.46,179.51L11.75,179.51L12.48,175.18L12.63,175.18L13.35,171.75L13.5,171.75L14.22,167.13L14.37,167.13L15.1,162.35L15.39,162.35L16.11,155.34L16.26,155.34L16.99,151.91L17.13,151.91L17.86,146.99L18,146.99L18.44,144.9L18.87,144.9L19.6,140.42L19.75,140.42L20.18,139.68L20.18,139.08L20.62,138.93L20.62,136.54L23.23,127.59L23.38,127.59L23.82,125.95L24.25,125.95L24.83,123.56L25.12,123.56L25.27,123.42L25.27,121.77L25.71,121.03L25.71,120.73L27.45,115.36L27.59,115.36L28.32,113.87L28.76,113.87L29.34,111.18L29.63,111.18L30.36,109.99L30.65,109.99L31.37,108.2L31.52,108.2L32.24,105.81L32.39,105.81L33.12,102.53L33.26,102.53L33.99,100.59L34.13,100.59L34.86,98.65L35.01,98.65L35.44,96.86L35.88,96.86L36.6,96.26L36.89,96.26L37.48,94.17L37.77,94.17L38.49,92.83L38.64,92.83L39.07,91.94L39.51,91.94L40.24,89.25L40.38,89.25L41.11,87.61L41.4,87.61L41.84,86.86L42.27,86.86L43,85.52L43.14,85.52L43.73,82.84L44.02,82.84L44.6,81.49L44.89,81.49L48.52,79.7L48.52,78.96L51.72,74.03L51.86,74.03L52.59,73.14L52.74,73.14L53.32,72.39L53.61,72.39L54.19,70.6L54.77,70.6L55.35,69.71L56.51,69.71L57.68,67.77L57.68,67.47L58.55,66.28L58.84,66.28L59.57,63.44L59.71,63.44L62.04,61.5L62.62,61.5L63.34,60.46L63.63,60.46L64.36,59.71L64.65,59.71L66.4,58.67L66.4,58.07L70.32,53.3L71.92,53.3L73.95,51.66L73.95,50.91L76.13,49.42L76.86,49.42L78.17,47.33L78.17,46.88L79.18,46.58L79.18,45.99L80.35,45.24L80.35,44.94L84.13,44.2L84.13,43.9L85.14,43L85.72,43L88.63,41.81L88.63,41.66L93.28,40.91L93.28,40.77L94.44,40.02L94.44,39.72L96.91,38.97L96.91,38.83L99.09,38.08L99.09,37.93L100.84,37.18L100.84,36.59L102.58,35.84L102.58,35.54L105.2,34.8L105.2,34.65L106.36,34.2L106.36,33.75L109.85,33.01L109.85,32.86L111.45,32.11L111.45,31.81L114.64,31.07L114.64,30.92L117.69,30.17L117.69,30.02L122.2,29.28L122.2,29.13L127.72,28.38L127.72,28.23L132.23,27.49L132.23,27.34L135.57,26.59L135.57,26.44L141.53,25.7L141.53,25.55L148.94,24.8L148.94,24.65L153.74,23.91L153.74,23.76L159.4,23.16L159.4,22.86L166.09,22.12L166.09,21.82L172.63,21.07L172.63,20.92L177.86,20.18L177.86,20.03L190.65,19.28L190.65,19.13L190.79,18.98L192.1,18.98L192.1,18.83L194.43,18.83L211.14,16.75L220.29,16.75L304,16" style="vector-effect: non-scaling-stroke; fill: none; stroke: rgb(99, 110, 250); stroke-opacity: 1; stroke-width: 2px; opacity: 1;"/></g><g class="points"/><g class="text"/></g></g></g><g class="overplot"/><path class="xlines-above crisp" d="M0,0" style="fill: none;"/><path class="ylines-above crisp" d="M0,0" style="fill: none;"/><g class="overlines-above"/><g class="xaxislayer-above"><g class="xtick"><text text-anchor="middle" x="0" y="433" transform="translate(248.50000000000003,0)" style="font-family: 'Open Sans', verdana, arial, sans-serif; font-size: 12px; fill: rgb(42, 63, 95); fill-opacity: 1; white-space: pre; opacity: 1;">0</text></g><g class="xtick"><text text-anchor="middle" x="0" y="433" style="font-family: 'Open Sans', verdana, arial, sans-serif; font-size: 12px; fill: rgb(42, 63, 95); fill-opacity: 1; white-space: pre; opacity: 1;" transform="translate(400,0)">0.5</text></g><g class="xtick"><text text-anchor="middle" x="0" y="433" style="font-family: 'Open Sans', verdana, arial, sans-serif; font-size: 12px; fill: rgb(42, 63, 95); fill-opacity: 1; white-space: pre; opacity: 1;" transform="translate(551.5,0)">1</text></g></g><g class="yaxislayer-above"><g class="ytick"><text text-anchor="end" x="246.50000000000003" y="4.199999999999999" transform="translate(0,419)" style="font-family: 'Open Sans', verdana, arial, sans-serif; font-size: 12px; fill: rgb(42, 63, 95); fill-opacity: 1; white-space: pre; opacity: 1;">0</text></g><g class="ytick"><text text-anchor="end" x="246.50000000000003" y="4.199999999999999" style="font-family: 'Open Sans', verdana, arial, sans-serif; font-size: 12px; fill: rgb(42, 63, 95); fill-opacity: 1; white-space: pre; opacity: 1;" transform="translate(0,358.4)">0.2</text></g><g class="ytick"><text text-anchor="end" x="246.50000000000003" y="4.199999999999999" style="font-family: 'Open Sans', verdana, arial, sans-serif; font-size: 12px; fill: rgb(42, 63, 95); fill-opacity: 1; white-space: pre; opacity: 1;" transform="translate(0,297.8)">0.4</text></g><g class="ytick"><text text-anchor="end" x="246.50000000000003" y="4.199999999999999" style="font-family: 'Open Sans', verdana, arial, sans-serif; font-size: 12px; fill: rgb(42, 63, 95); fill-opacity: 1; white-space: pre; opacity: 1;" transform="translate(0,237.2)">0.6</text></g><g class="ytick"><text text-anchor="end" x="246.50000000000003" y="4.199999999999999" style="font-family: 'Open Sans', verdana, arial, sans-serif; font-size: 12px; fill: rgb(42, 63, 95); fill-opacity: 1; white-space: pre; opacity: 1;" transform="translate(0,176.6)">0.8</text></g><g class="ytick"><text text-anchor="end" x="246.50000000000003" y="4.199999999999999" style="font-family: 'Open Sans', verdana, arial, sans-serif; font-size: 12px; fill: rgb(42, 63, 95); fill-opacity: 1; white-space: pre; opacity: 1;" transform="translate(0,116)">1</text></g></g><g class="overaxes-above"/></g></g><g class="polarlayer"/><g class="smithlayer"/><g class="ternarylayer"/><g class="geolayer"/><g class="funnelarealayer"/><g class="pielayer"/><g class="iciclelayer"/><g class="treemaplayer"/><g class="sunburstlayer"/><g class="glimages"/><defs id="topdefs-c81767"><g class="clips"/></defs><g class="layer-above"><g class="imagelayer"/><g class="shapelayer"><path data-index="0" fill-rule="evenodd" d="M248.50000000000003,419L551.5,116" clip-path="url(#clipc81767xy)" style="opacity: 1; stroke: rgb(42, 63, 95); stroke-opacity: 1; fill: rgb(0, 0, 0); fill-opacity: 0; stroke-dasharray: 9px, 9px; stroke-width: 2px;"/></g></g><g class="infolayer"><g class="g-gtitle"><text class="gtitle" x="40" y="50" text-anchor="start" dy="0em" style="font-family: 'Open Sans', verdana, arial, sans-serif; font-size: 17px; fill: rgb(42, 63, 95); opacity: 1; font-weight: normal; white-space: pre;">ROC Curve (AUC=0.9037)</text></g><g class="g-xtitle"><text class="xtitle" x="400" y="460.3" text-anchor="middle" style="font-family: 'Open Sans', verdana, arial, sans-serif; font-size: 14px; fill: rgb(42, 63, 95); opacity: 1; font-weight: normal; white-space: pre;">False Positive Rate</text></g><g class="g-ytitle"><text class="ytitle" transform="rotate(-90,202.075,260)" x="202.075" y="260" text-anchor="middle" style="font-family: 'Open Sans', verdana, arial, sans-serif; font-size: 14px; fill: rgb(42, 63, 95); opacity: 1; font-weight: normal; white-space: pre;">True Positive Rate</text></g></g></svg>