<svg class="main-svg" xmlns="http://www.w3.org/2000/svg" xmlns:xlink="http://www.w3.org/1999/xlink" width="800" height="500" style="" viewBox="0 0 800 500"><rect x="0" y="0" width="800" height="500" style="fill: rgb(255, 255, 255); fill-opacity: 1;"/><defs id="defs-51443a"><g class="clips"><clipPath id="clip51443axyplot" class="plotclip"><rect width="304.99999999999994" height="320"/></clipPath><clipPath class="axesclip" id="clip51443ax"><rect x="247.50000000000003" y="0" width="304.99999999999994" height="500"/></clipPath><clipPath class="axesclip" id="clip51443ay"><rect x="0" y="100" width="800" height="320"/></clipPath><clipPath class="axesclip" id="clip51443axy"><rect x="247.50000000000003" y="100" width="304.99999999999994" height="320"/></clipPath></g><g class="gradients"/><g class="patterns"/></defs><g class="bglayer"><rect class="bg" x="247.50000000000003" y="100" width="304.99999999999994" height="320" style="fill: rgb(229, 236, 246); fill-opacity: 1; stroke-width: 0;"/></g><g class="layer-below"><g class="imagelayer"/><g class="shapelayer"/></g><g class="cartesianlayer"><g class="subplot xy"><g class="layer-subplot"><g class="shapelayer"/><g class="imagelayer"/></g><g class="minor-gridlayer"><g class="x"/><g class="y"/></g><g class="gridlayer"><g class="x"><path class="xgrid crisp" transform="translate(400,0)" d="M0,100v320" style="stroke: rgb(255, 255, 255); stroke-opacity: 1; stroke-width: 1px;"/></g><g class="y"><path class="ygrid crisp" transform="translate(0,358.4)" d="M247.50000000000003,0h304.99999999999994" style="stroke: rgb(255, 255, 255); stroke-opacity: 1; stroke-width: 1px;"/><path class="ygrid crisp" transform="translate(0,297.8)" d="M247.50000000000003,0h304.99999999999994" style="stroke: rgb(255, 255, 255); stroke-opacity: 1; stroke-width: 1px;"/><path class="ygrid crisp" transform="translate(0,237.2)" d="M247.50000000000003,0h304.99999999999994" style="stroke: rgb(255, 255, 255); stroke-opacity: 1; stroke-width: 1px;"/><path class="ygrid crisp" transform="translate(0,176.6)" d="M247.50000000000003,0h304.99999999999994" style="stroke: rgb(255, 255, 255); stroke-opacity: 1; stroke-width: 1px;"/><path class="ygrid crisp" transform="translate(0,116)" d="M247.50000000000003,0h304.99999999999994" style="stroke: rgb(255, 255, 255); stroke-opacity: 1; stroke-width: 1px;"/></g></g><g class="zerolinelayer"><path class="xzl zl crisp" transform="translate(248.50000000000003,0)" d="M0,100v320" style="stroke: rgb(255, 255, 255); stroke-opacity: 1; stroke-width: 2px;"/><path class="yzl zl crisp" transform="translate(0,419)" d="M247.50000000000003,0h304.99999999999994" style="stroke: rgb(255, 255, 255); stroke-opacity: 1; stroke-width: 2px;"/></g><path class="xlines-below"/><path class="ylines-below"/><g class="overlines-below"/><g class="xaxislayer-below"/><g class="yaxislayer-below"/><g class="overaxes-below"/><g class="plot" transform="translate(247.50000000000003,100)" clip-path="url(#clip51443axyplot)"><g class="scatterlayer mlayer"><g class="trace scatter traced922fa" style="stroke-miterlimit: 2;"><g class="fills"><g><path class="js-fill" d="M304,319L1,319L1,319L1.73,291.7L1.87,291.7L2.6,282.6L2.74,282.6L3.47,258.88L3.76,258.88L4.49,246.64L4.63,246.64L5.36,243.06L5.51,243.06L6.23,223.67L6.38,223.67L7.1,217.4L7.25,217.4L7.83,209.94L8.12,209.94L8.85,205.47L8.99,205.47L9.72,198.9L9.86,198.9L10.59,188.46L10.74,188.46L11.46,181.45L11.61,181.45L12.34,177.42L12.48,177.42L13.06,171.6L13.5,171.6L14.08,169.81L14.37,169.81L14.95,166.83L15.24,166.83L15.97,159.82L16.11,159.82L16.84,153.4L16.99,153.4L17.71,151.16L17.86,151.16L18.58,149.22L18.73,149.22L19.46,144.75L19.75,144.75L20.47,140.87L20.62,140.87L21.35,136.25L21.49,136.25L22.22,130.73L22.36,130.73L22.51,130.58L22.51,129.38L23.38,126.1L23.67,126.1L24.54,124.31L24.54,124.01L24.83,123.86L24.83,122.97L25.27,122.52L25.27,121.77L26.58,117L27.01,117L27.74,111.48L27.88,111.48L28.61,109.99L28.76,109.99L29.48,108.05L29.63,108.05L30.36,105.06L30.5,105.06L31.08,102.98L31.66,102.98L32.24,101.78L32.68,101.78L33.41,100.44L33.55,100.44L33.99,99.25L33.99,98.8L34.57,98.5L34.57,97.75L36.75,92.53L37.48,92.53L38.2,90.89L38.35,90.89L39.07,88.65L39.37,88.65L40.09,86.71L40.38,86.71L40.53,86.57L40.53,85.37L42.42,84.92L42.42,83.58L43.58,82.09L43.58,81.49L46.49,76.72L46.78,76.72L47.5,75.82L47.79,75.82L48.52,73.74L48.67,73.74L48.96,72.84L50.12,72.84L50.85,72.09L51.14,72.09L51.43,71.05L52.01,71.05L52.59,69.41L52.88,69.41L53.61,68.81L53.75,68.81L54.33,67.92L54.62,67.92L55.35,66.87L55.64,66.87L56.37,66.13L56.95,66.13L58.55,64.49L59.13,64.49L59.27,64.04L60.15,64.04L60.87,61.8L61.31,61.8L62.04,60.31L62.33,60.31L63.05,58.67L63.2,58.67L63.93,57.77L64.36,57.77L65.09,56.88L65.52,56.88L66.25,55.98L66.4,55.98L68.72,54.49L68.72,54.04L69.16,53.45L69.16,52.85L70.76,52.55L70.76,51.95L73.08,51.21L73.08,51.06L74.82,50.31L74.82,50.16L76.28,49.42L76.28,48.82L78.31,48.22L78.31,47.93L78.75,47.78L78.75,46.88L80.64,46.14L80.64,45.69L81.36,45.39L81.95,45.39L84.85,42.56L85.58,42.56L86.16,41.66L87.18,41.66L97.2,37.78L97.2,37.48L98.8,36.74L98.8,36.29L100.98,35.69L100.98,35.39L105.92,34.65L105.92,34.35L108.54,33.6L108.54,33.45L111.88,32.71L111.88,32.56L115.81,31.96L115.81,31.81L117.11,31.07L118.42,31.07L118.86,30.47L120.6,30.47L126.41,28.53L128.16,28.53L128.16,28.38L129.32,28.38L134.84,27.34L138.77,27.34L139.35,26.44L139.78,26.44L139.93,26.14L141.82,26.14L144.87,25.25L147.92,25.25L155.92,24.06L155.92,23.76L163.33,23.01L163.33,22.86L170.59,22.27L170.59,21.97L173.79,21.22L173.79,21.07L179.75,20.33L179.75,20.18L184.25,19.43L184.25,19.28L200.82,18.54L200.82,18.39L208.09,17.64L208.09,17.49L216.52,16.75L216.52,16.6L304,16" style="fill: rgb(99, 110, 250); fill-opacity: 0.5; stroke-width: 0;"/></g></g><g class="errorbars"/><g class="lines"><path class="js-line" d="M1,319L1.73,291.7L1.87,291.7L2.6,282.6L2.74,282.6L3.47,258.88L3.76,258.88L4.49,246.64L4.63,246.64L5.36,243.06L5.51,243.06L6.23,223.67L6.38,223.67L7.1,217.4L7.25,217.4L7.83,209.94L8.12,209.94L8.85,205.47L8.99,205.47L9.72,198.9L9.86,198.9L10.59,188.46L10.74,188.46L11.46,181.45L11.61,181.45L12.34,177.42L12.48,177.42L13.06,171.6L13.5,171.6L14.08,169.81L14.37,169.81L14.95,166.83L15.24,166.83L15.97,159.82L16.11,159.82L16.84,153.4L16.99,153.4L17.71,151.16L17.86,151.16L18.58,149.22L18.73,149.22L19.46,144.75L19.75,144.75L20.47,140.87L20.62,140.87L21.35,136.25L21.49,136.25L22.22,130.73L22.36,130.73L22.51,130.58L22.51,129.38L23.38,126.1L23.67,126.1L24.54,124.31L24.54,124.01L24.83,123.86L24.83,122.97L25.27,122.52L25.27,121.77L26.58,117L27.01,117L27.74,111.48L27.88,111.48L28.61,109.99L28.76,109.99L29.48,108.05L29.63,108.05L30.36,105.06L30.5,105.06L31.08,102.98L31.66,102.98L32.24,101.78L32.68,101.78L33.41,100.44L33.55,100.44L33.99,99.25L33.99,98.8L34.57,98.5L34.57,97.75L36.75,92.53L37.48,92.53L38.2,90.89L38.35,90.89L39.07,88.65L39.37,88.65L40.09,86.71L40.38,86.71L40.53,86.57L40.53,85.37L42.42,84.92L42.42,83.58L43.58,82.09L43.58,81.49L46.49,76.72L46.78,76.72L47.5,75.82L47.79,75.82L48.52,73.74L48.67,73.74L48.96,72.84L50.12,72.84L50.85,72.09L51.14,72.09L51.43,71.05L52.01,71.05L52.59,69.41L52.88,69.41L53.61,68.81L53.75,68.81L54.33,67.92L54.62,67.92L55.35,66.87L55.64,66.87L56.37,66.13L56.95,66.13L58.55,64.49L59.13,64.49L59.27,64.04L60.15,64.04L60.87,61.8L61.31,61.8L62.04,60.31L62.33,60.31L63.05,58.67L63.2,58.67L63.93,57.77L64.36,57.77L65.09,56.88L65.52,56.88L66.25,55.98L66.4,55.98L68.72,54.49L68.72,54.04L69.16,53.45L69.16,52.85L70.76,52.55L70.76,51.95L73.08,51.21L73.08,51.06L74.82,50.31L74.82,50.16L76.28,49.42L76.28,48.82L78.31,48.22L78.31,47.93L78.75,47.78L78.75,46.88L80.64,46.14L80.64,45.69L81.36,45.39L81.95,45.39L84.85,42.56L85.58,42.56L86.16,41.66L87.18,41.66L97.2,37.78L97.2,37.48L98.8,36.74L98.8,36.29L100.98,35.69L100.98,35.39L105.92,34.65L105.92,34.35L108.54,33.6L108.54,33.45L111.88,32.71L111.88,32.56L115.81,31.96L115.81,31.81L117.11,31.07L118.42,31.07L118.86,30.47L120.6,30.47L126.41,28.53L128.16,28.53L128.16,28.38L129.32,28.38L134.84,27.34L138.77,27.34L139.35,26.44L139.78,26.44L139.93,26.14L141.82,26.14L144.87,25.25L147.92,25.25L155.92,24.06L155.92,23.76L163.33,23.01L163.33,22.86L170.59,22.27L170.59,21.97L173.79,21.22L173.79,21.07L179.75,20.33L179.75,20.18L184.25,19.43L184.25,19.28L200.82,18.54L200.82,18.39L208.09,17.64L208.09,17.49L216.52,16.75L216.52,16.6L304,16" style="vector-effect: non-scaling-stroke; fill: none; stroke: rgb(99, 110, 250); stroke-opacity: 1; stroke-width: 2px; opacity: 1;"/></g><g class="points"/><g class="text"/></g></g></g><g class="overplot"/><path class="xlines-above crisp" d="M0,0" style="fill: none;"/><path class="ylines-above crisp" d="M0,0" style="fill: none;"/><g class="overlines-above"/><g class="xaxislayer-above"><g class="xtick"><text text-anchor="middle" x="0" y="433" transform="translate(248.50000000000003,0)" style="font-family: 'Open Sans', verdana, arial, sans-serif; font-size: 12px; fill: rgb(42, 63, 95); fill-opacity: 1; white-space: pre; opacity: 1;">0</text></g><g class="xtick"><text text-anchor="middle" x="0" y="433" style="font-family: 'Open Sans', verdana, arial, sans-serif; font-size: 12px; fill: rgb(42, 63, 95); fill-opacity: 1; white-space: pre; opacity: 1;" transform="translate(400,0)">0.5</text></g><g class="xtick"><text text-anchor="middle" x="0" y="433" style="font-family: 'Open Sans', verdana, arial, sans-serif; font-size: 12px; fill: rgb(42, 63, 95); fill-opacity: 1; white-space: pre; opacity: 1;" transform="translate(551.5,0)">1</text></g></g><g class="yaxislayer-above"><g class="ytick"><text text-anchor="end" x="246.50000000000003" y="4.199999999999999" transform="translate(0,419)" style="font-family: 'Open Sans', verdana, arial, sans-serif; font-size: 12px; fill: rgb(42, 63, 95); fill-opacity: 1; white-space: pre; opacity: 1;">0</text></g><g class="ytick"><text text-anchor="end" x="246.50000000000003" y="4.199999999999999" style="font-family: 'Open Sans', verdana, arial, sans-serif; font-size: 12px; fill: rgb(42, 63, 95); fill-opacity: 1; white-space: pre; opacity: 1;" transform="translate(0,358.4)">0.2</text></g><g class="ytick"><text text-anchor="end" x="246.50000000000003" y="4.199999999999999" style="font-family: 'Open Sans', verdana, arial, sans-serif; font-size: 12px; fill: rgb(42, 63, 95); fill-opacity: 1; white-space: pre; opacity: 1;" transform="translate(0,297.8)">0.4</text></g><g class="ytick"><text text-anchor="end" x="246.50000000000003" y="4.199999999999999" style="font-family: 'Open Sans', verdana, arial, sans-serif; font-size: 12px; fill: rgb(42, 63, 95); fill-opacity: 1; white-space: pre; opacity: 1;" transform="translate(0,237.2)">0.6</text></g><g class="ytick"><text text-anchor="end" x="246.50000000000003" y="4.199999999999999" style="font-family: 'Open Sans', verdana, arial, sans-serif; font-size: 12px; fill: rgb(42, 63, 95); fill-opacity: 1; white-space: pre; opacity: 1;" transform="translate(0,176.6)">0.8</text></g><g class="ytick"><text text-anchor="end" x="246.50000000000003" y="4.199999999999999" style="font-family: 'Open Sans', verdana, arial, sans-serif; font-size: 12px; fill: rgb(42, 63, 95); fill-opacity: 1; white-space: pre; opacity: 1;" transform="translate(0,116)">1</text></g></g><g class="overaxes-above"/></g></g><g class="polarlayer"/><g class="smithlayer"/><g class="ternarylayer"/><g class="geolayer"/><g class="funnelarealayer"/><g class="pielayer"/><g class="iciclelayer"/><g class="treemaplayer"/><g class="sunburstlayer"/><g class="glimages"/><defs id="topdefs-51443a"><g class="clips"/></defs><g class="layer-above"><g class="imagelayer"/><g class="shapelayer"><path data-index="0" fill-rule="evenodd" d="M248.50000000000003,419L551.5,116" clip-path="url(#clip51443axy)" style="opacity: 1; stroke: rgb(42, 63, 95); stroke-opacity: 1; fill: rgb(0, 0, 0); fill-opacity: 0; stroke-dasharray: 9px, 9px; stroke-width: 2px;"/></g></g><g class="infolayer"><g class="g-gtitle"><text class="gtitle" x="40" y="50" text-anchor="start" dy="0em" style="font-family: 'Open Sans', verdana, arial, sans-serif; font-size: 17px; fill: rgb(42, 63, 95); opacity: 1; font-weight: normal; white-space: pre;">ROC Curve (AUC=0.9041)</text></g><g class="g-xtitle"><text class="xtitle" x="400" y="460.3" text-anchor="middle" style="font-family: 'Open Sans', verdana, arial, sans-serif; font-size: 14px; fill: rgb(42, 63, 95); opacity: 1; font-weight: normal; white-space: pre;">False Positive Rate</text></g><g class="g-ytitle"><text class="ytitle" transform="rotate(-90,202.075,260)" x="202.075" y="260" text-anchor="middle" style="font-family: 'Open Sans', verdana, arial, sans-serif; font-size: 14px; fill: rgb(42, 63, 95); opacity: 1; font-weight: normal; white-space: pre;">True Positive Rate</text></g></g></svg>