<svg class="main-svg" xmlns="http://www.w3.org/2000/svg" xmlns:xlink="http://www.w3.org/1999/xlink" width="800" height="500" style="" viewBox="0 0 800 500"><rect x="0" y="0" width="800" height="500" style="fill: rgb(255, 255, 255); fill-opacity: 1;"/><defs id="defs-19a802"><g class="clips"><clipPath id="clip19a802xyplot" class="plotclip"><rect width="304.99999999999994" height="320"/></clipPath><clipPath class="axesclip" id="clip19a802x"><rect x="247.50000000000003" y="0" width="304.99999999999994" height="500"/></clipPath><clipPath class="axesclip" id="clip19a802y"><rect x="0" y="100" width="800" height="320"/></clipPath><clipPath class="axesclip" id="clip19a802xy"><rect x="247.50000000000003" y="100" width="304.99999999999994" height="320"/></clipPath></g><g class="gradients"/><g class="patterns"/></defs><g class="bglayer"><rect class="bg" x="247.50000000000003" y="100" width="304.99999999999994" height="320" style="fill: rgb(229, 236, 246); fill-opacity: 1; stroke-width: 0;"/></g><g class="layer-below"><g class="imagelayer"/><g class="shapelayer"/></g><g class="cartesianlayer"><g class="subplot xy"><g class="layer-subplot"><g class="shapelayer"/><g class="imagelayer"/></g><g class="minor-gridlayer"><g class="x"/><g class="y"/></g><g class="gridlayer"><g class="x"><path class="xgrid crisp" transform="translate(400,0)" d="M0,100v320" style="stroke: rgb(255, 255, 255); stroke-opacity: 1; stroke-width: 1px;"/></g><g class="y"><path class="ygrid crisp" transform="translate(0,358.4)" d="M247.50000000000003,0h304.99999999999994" style="stroke: rgb(255, 255, 255); stroke-opacity: 1; stroke-width: 1px;"/><path class="ygrid crisp" transform="translate(0,297.8)" d="M247.50000000000003,0h304.99999999999994" style="stroke: rgb(255, 255, 255); stroke-opacity: 1; stroke-width: 1px;"/><path class="ygrid crisp" transform="translate(0,237.2)" d="M247.50000000000003,0h304.99999999999994" style="stroke: rgb(255, 255, 255); stroke-opacity: 1; stroke-width: 1px;"/><path class="ygrid crisp" transform="translate(0,176.6)" d="M247.50000000000003,0h304.99999999999994" style="stroke: rgb(255, 255, 255); stroke-opacity: 1; stroke-width: 1px;"/><path class="ygrid crisp" transform="translate(0,116)" d="M247.50000000000003,0h304.99999999999994" style="stroke: rgb(255, 255, 255); stroke-opacity: 1; stroke-width: 1px;"/></g></g><g class="zerolinelayer"><path class="xzl zl crisp" transform="translate(248.50000000000003,0)" d="M0,100v320" style="stroke: rgb(255, 255, 255); stroke-opacity: 1; stroke-width: 2px;"/><path class="yzl zl crisp" transform="translate(0,419)" d="M247.50000000000003,0h304.99999999999994" style="stroke: rgb(255, 255, 255); stroke-opacity: 1; stroke-width: 2px;"/></g><path class="xlines-below"/><path class="ylines-below"/><g class="overlines-below"/><g class="xaxislayer-below"/><g class="yaxislayer-below"/><g class="overaxes-below"/><g class="plot" transform="translate(247.50000000000003,100)" clip-path="url(#clip19a802xyplot)"><g class="scatterlayer mlayer"><g class="trace scatter trace75fc87" style="stroke-miterlimit: 2;"><g class="fills"><g><path class="js-fill" d="M304,319L1,319L1,319L1.72,280.65L1.87,280.65L2.59,257.16L2.73,257.16L3.31,246.79L3.6,246.79L4.32,240.92L4.47,240.92L5.05,236.08L5.63,236.08L6.35,227.44L6.49,227.44L7.22,212.59L7.36,212.59L8.08,208.1L8.23,208.1L8.95,207.06L9.1,207.06L9.67,200.84L9.96,200.84L10.54,198.77L10.83,198.77L11.55,193.93L11.84,193.93L12.56,188.4L12.71,188.4L13.43,179.77L13.72,179.77L14.44,171.13L14.88,171.13L15.6,169.05L15.75,169.05L16.47,165.6L16.61,165.6L17.34,158.34L17.48,158.34L18.2,154.89L18.78,154.89L19.36,153.16L19.65,153.16L20.37,152.13L20.52,152.13L21.24,148.67L21.38,148.67L22.11,142.8L22.25,142.8L22.68,139L23.12,139L23.84,136.23L23.99,136.23L24.27,134.51L24.85,134.51L25.58,132.09L26.3,132.09L26.73,129.32L27.17,129.32L27.6,127.94L28.03,127.94L28.76,123.45L28.9,123.45L29.48,121.38L29.77,121.38L30.49,118.27L30.64,118.27L31.36,115.5L31.5,115.5L32.08,113.43L32.37,113.43L32.8,111.7L33.38,111.7L34.1,110.32L34.25,110.32L34.68,108.25L36.27,108.25L36.85,106.17L37.57,106.17L38.15,105.48L39.02,105.48L39.02,105.14L40.03,105.14L40.61,104.45L40.9,104.45L41.33,103.41L41.77,103.41L42.2,102.03L42.92,102.03L43.36,100.99L43.79,100.99L44.22,98.23L45.09,98.23L45.81,96.5L46.1,96.5L46.68,95.46L47.4,95.46L47.55,94.77L48.42,94.77L48.56,94.08L49.57,94.08L50.01,92.7L51.31,92.7L51.6,90.63L52.17,90.63L52.17,90.28L53.19,90.28L53.48,89.25L54.92,89.25L55.64,87.17L55.93,87.17L56.66,85.1L57.67,85.1L58.39,84.06L58.54,84.06L58.54,83.37L59.4,83.37L60.13,82.34L60.56,82.34L61.14,81.3L61.43,81.3L61.86,79.92L62.87,79.92L63.31,77.5L63.88,77.5L64.32,76.81L65.62,76.81L66.05,76.12L66.49,76.12L67.21,74.39L67.35,74.39L67.79,72.66L69.38,72.66L70.1,71.28L70.39,71.28L70.82,70.24L71.83,70.24L72.56,68.86L72.85,68.86L72.85,68.52L74,68.52L74.58,67.82L74.87,67.82L75.59,66.79L75.88,66.79L76.46,65.75L76.89,65.75L77.33,64.02L77.76,64.02L77.76,63.68L78.63,63.68L79.21,62.99L79.64,62.99L80.22,62.3L80.65,62.3L81.23,60.91L82.1,60.91L82.68,58.84L83.11,58.84L83.83,57.81L83.98,57.81L83.98,57.46L86.15,57.46L86.15,57.11L88.03,57.11L88.03,56.77L89.62,56.77L89.91,56.08L91.06,56.08L91.5,55.39L91.93,55.39L92.07,54.7L93.66,54.7L93.66,54L94.68,54L95.4,52.62L95.54,52.62L95.69,51.24L96.41,51.24L96.41,50.9L97.28,50.9L97.28,50.55L98.72,50.55L99.16,49.86L99.59,49.86L100.31,48.13L100.89,48.13L101.61,47.44L101.76,47.44L101.76,47.09L102.77,47.09L102.92,46.06L104.36,46.06L104.36,45.71L105.37,45.71L106.1,44.68L106.82,44.68L106.82,43.99L107.98,43.99L107.98,43.64L109.13,43.64L109.85,42.6L110,42.6L110,42.26L112.02,42.26L112.02,41.57L113.32,41.57L113.32,40.53L114.63,40.53L114.63,40.18L116.65,40.18L116.79,39.15L117.66,39.15L117.95,37.77L118.82,37.77L119.25,37.08L120.41,37.08L120.84,36.04L121.27,36.04L121.27,35.69L122.58,35.69L122.58,35.35L123.44,35.35L123.59,34.31L124.6,34.31L124.6,33.62L125.61,33.62L125.61,33.27L126.77,33.27L127.2,32.58L129.37,32.58L129.37,32.24L130.82,32.24L130.96,31.55L131.97,31.55L132.55,30.51L138.77,30.51L138.77,30.17L142.38,30.17L142.38,29.82L144.26,29.82L144.84,28.44L148.31,28.44L148.31,28.09L155.39,28.09L155.39,27.75L159.87,27.75L159.87,27.4L165.51,27.4L165.51,26.71L166.38,26.71L166.38,26.36L167.25,26.36L167.25,25.67L169.7,25.67L169.85,24.98L170.71,24.98L170.71,24.64L173.61,24.64L174.18,23.6L177.36,23.6L177.36,23.26L178.67,23.26L178.67,22.91L187.34,22.91L187.34,22.56L188.5,22.56L188.5,22.22L190.66,22.22L190.95,21.53L191.82,21.53L191.82,21.18L194.86,21.18L194.86,20.84L199.48,20.84L199.48,20.49L201.36,20.49L201.36,20.15L208.3,20.15L208.3,19.8L212.78,19.8L212.78,19.45L213.65,19.45L213.65,19.11L220.3,19.11L220.3,18.76L222.76,18.76L222.76,18.42L234.03,18.42L234.03,18.07L255.57,18.07L255.57,17.73L256.44,17.73L256.44,17.38L264.25,17.38L264.25,17.04L274.51,17.04L274.51,16.69L284.05,16.69L284.05,16.35L288.39,16.35L288.39,16L304,16" style="fill: rgb(99, 110, 250); fill-opacity: 0.5; stroke-width: 0;"/></g></g><g class="errorbars"/><g class="lines"><path class="js-line" d="M1,319L1.72,280.65L1.87,280.65L2.59,257.16L2.73,257.16L3.31,246.79L3.6,246.79L4.32,240.92L4.47,240.92L5.05,236.08L5.63,236.08L6.35,227.44L6.49,227.44L7.22,212.59L7.36,212.59L8.08,208.1L8.23,208.1L8.95,207.06L9.1,207.06L9.67,200.84L9.96,200.84L10.54,198.77L10.83,198.77L11.55,193.93L11.84,193.93L12.56,188.4L12.71,188.4L13.43,179.77L13.72,179.77L14.44,171.13L14.88,171.13L15.6,169.05L15.75,169.05L16.47,165.6L16.61,165.6L17.34,158.34L17.48,158.34L18.2,154.89L18.78,154.89L19.36,153.16L19.65,153.16L20.37,152.13L20.52,152.13L21.24,148.67L21.38,148.67L22.11,142.8L22.25,142.8L22.68,139L23.12,139L23.84,136.23L23.99,136.23L24.27,134.51L24.85,134.51L25.58,132.09L26.3,132.09L26.73,129.32L27.17,129.32L27.6,127.94L28.03,127.94L28.76,123.45L28.9,123.45L29.48,121.38L29.77,121.38L30.49,118.27L30.64,118.27L31.36,115.5L31.5,115.5L32.08,113.43L32.37,113.43L32.8,111.7L33.38,111.7L34.1,110.32L34.25,110.32L34.68,108.25L36.27,108.25L36.85,106.17L37.57,106.17L38.15,105.48L39.02,105.48L39.02,105.14L40.03,105.14L40.61,104.45L40.9,104.45L41.33,103.41L41.77,103.41L42.2,102.03L42.92,102.03L43.36,100.99L43.79,100.99L44.22,98.23L45.09,98.23L45.81,96.5L46.1,96.5L46.68,95.46L47.4,95.46L47.55,94.77L48.42,94.77L48.56,94.08L49.57,94.08L50.01,92.7L51.31,92.7L51.6,90.63L52.17,90.63L52.17,90.28L53.19,90.28L53.48,89.25L54.92,89.25L55.64,87.17L55.93,87.17L56.66,85.1L57.67,85.1L58.39,84.06L58.54,84.06L58.54,83.37L59.4,83.37L60.13,82.34L60.56,82.34L61.14,81.3L61.43,81.3L61.86,79.92L62.87,79.92L63.31,77.5L63.88,77.5L64.32,76.81L65.62,76.81L66.05,76.12L66.49,76.12L67.21,74.39L67.35,74.39L67.79,72.66L69.38,72.66L70.1,71.28L70.39,71.28L70.82,70.24L71.83,70.24L72.56,68.86L72.85,68.86L72.85,68.52L74,68.52L74.58,67.82L74.87,67.82L75.59,66.79L75.88,66.79L76.46,65.75L76.89,65.75L77.33,64.02L77.76,64.02L77.76,63.68L78.63,63.68L79.21,62.99L79.64,62.99L80.22,62.3L80.65,62.3L81.23,60.91L82.1,60.91L82.68,58.84L83.11,58.84L83.83,57.81L83.98,57.81L83.98,57.46L86.15,57.46L86.15,57.11L88.03,57.11L88.03,56.77L89.62,56.77L89.91,56.08L91.06,56.08L91.5,55.39L91.93,55.39L92.07,54.7L93.66,54.7L93.66,54L94.68,54L95.4,52.62L95.54,52.62L95.69,51.24L96.41,51.24L96.41,50.9L97.28,50.9L97.28,50.55L98.72,50.55L99.16,49.86L99.59,49.86L100.31,48.13L100.89,48.13L101.61,47.44L101.76,47.44L101.76,47.09L102.77,47.09L102.92,46.06L104.36,46.06L104.36,45.71L105.37,45.71L106.1,44.68L106.82,44.68L106.82,43.99L107.98,43.99L107.98,43.64L109.13,43.64L109.85,42.6L110,42.6L110,42.26L112.02,42.26L112.02,41.57L113.32,41.57L113.32,40.53L114.63,40.53L114.63,40.18L116.65,40.18L116.79,39.15L117.66,39.15L117.95,37.77L118.82,37.77L119.25,37.08L120.41,37.08L120.84,36.04L121.27,36.04L121.27,35.69L122.58,35.69L122.58,35.35L123.44,35.35L123.59,34.31L124.6,34.31L124.6,33.62L125.61,33.62L125.61,33.27L126.77,33.27L127.2,32.58L129.37,32.58L129.37,32.24L130.82,32.24L130.96,31.55L131.97,31.55L132.55,30.51L138.77,30.51L138.77,30.17L142.38,30.17L142.38,29.82L144.26,29.82L144.84,28.44L148.31,28.44L148.31,28.09L155.39,28.09L155.39,27.75L159.87,27.75L159.87,27.4L165.51,27.4L165.51,26.71L166.38,26.71L166.38,26.36L167.25,26.36L167.25,25.67L169.7,25.67L169.85,24.98L170.71,24.98L170.71,24.64L173.61,24.64L174.18,23.6L177.36,23.6L177.36,23.26L178.67,23.26L178.67,22.91L187.34,22.91L187.34,22.56L188.5,22.56L188.5,22.22L190.66,22.22L190.95,21.53L191.82,21.53L191.82,21.18L194.86,21.18L194.86,20.84L199.48,20.84L199.48,20.49L201.36,20.49L201.36,20.15L208.3,20.15L208.3,19.8L212.78,19.8L212.78,19.45L213.65,19.45L213.65,19.11L220.3,19.11L220.3,18.76L222.76,18.76L222.76,18.42L234.03,18.42L234.03,18.07L255.57,18.07L255.57,17.73L256.44,17.73L256.44,17.38L264.25,17.38L264.25,17.04L274.51,17.04L274.51,16.69L284.05,16.69L284.05,16.35L288.39,16.35L288.39,16L304,16" style="vector-effect: non-scaling-stroke; fill: none; stroke: rgb(99, 110, 250); stroke-opacity: 1; stroke-width: 2px; opacity: 1;"/></g><g class="points"/><g class="text"/></g></g></g><g class="overplot"/><path class="xlines-above crisp" d="M0,0" style="fill: none;"/><path class="ylines-above crisp" d="M0,0" style="fill: none;"/><g class="overlines-above"/><g class="xaxislayer-above"><g class="xtick"><text text-anchor="middle" x="0" y="433" transform="translate(248.50000000000003,0)" style="font-family: 'Open Sans', verdana, arial, sans-serif; font-size: 12px; fill: rgb(42, 63, 95); fill-opacity: 1; white-space: pre; opacity: 1;">0</text></g><g class="xtick"><text text-anchor="middle" x="0" y="433" style="font-family: 'Open Sans', verdana, arial, sans-serif; font-size: 12px; fill: rgb(42, 63, 95); fill-opacity: 1; white-space: pre; opacity: 1;" transform="translate(400,0)">0.5</text></g><g class="xtick"><text text-anchor="middle" x="0" y="433" style="font-family: 'Open Sans', verdana, arial, sans-serif; font-size: 12px; fill: rgb(42, 63, 95); fill-opacity: 1; white-space: pre; opacity: 1;" transform="translate(551.5,0)">1</text></g></g><g class="yaxislayer-above"><g class="ytick"><text text-anchor="end" x="246.50000000000003" y="4.199999999999999" transform="translate(0,419)" style="font-family: 'Open Sans', verdana, arial, sans-serif; font-size: 12px; fill: rgb(42, 63, 95); fill-opacity: 1; white-space: pre; opacity: 1;">0</text></g><g class="ytick"><text text-anchor="end" x="246.50000000000003" y="4.199999999999999" style="font-family: 'Open Sans', verdana, arial, sans-serif; font-size: 12px; fill: rgb(42, 63, 95); fill-opacity: 1; white-space: pre; opacity: 1;" transform="translate(0,358.4)">0.2</text></g><g class="ytick"><text text-anchor="end" x="246.50000000000003" y="4.199999999999999" style="font-family: 'Open Sans', verdana, arial, sans-serif; font-size: 12px; fill: rgb(42, 63, 95); fill-opacity: 1; white-space: pre; opacity: 1;" transform="translate(0,297.8)">0.4</text></g><g class="ytick"><text text-anchor="end" x="246.50000000000003" y="4.199999999999999" style="font-family: 'Open Sans', verdana, arial, sans-serif; font-size: 12px; fill: rgb(42, 63, 95); fill-opacity: 1; white-space: pre; opacity: 1;" transform="translate(0,237.2)">0.6</text></g><g class="ytick"><text text-anchor="end" x="246.50000000000003" y="4.199999999999999" style="font-family: 'Open Sans', verdana, arial, sans-serif; font-size: 12px; fill: rgb(42, 63, 95); fill-opacity: 1; white-space: pre; opacity: 1;" transform="translate(0,176.6)">0.8</text></g><g class="ytick"><text text-anchor="end" x="246.50000000000003" y="4.199999999999999" style="font-family: 'Open Sans', verdana, arial, sans-serif; font-size: 12px; fill: rgb(42, 63, 95); fill-opacity: 1; white-space: pre; opacity: 1;" transform="translate(0,116)">1</text></g></g><g class="overaxes-above"/></g></g><g class="polarlayer"/><g class="smithlayer"/><g class="ternarylayer"/><g class="geolayer"/><g class="funnelarealayer"/><g class="pielayer"/><g class="iciclelayer"/><g class="treemaplayer"/><g class="sunburstlayer"/><g class="glimages"/><defs id="topdefs-19a802"><g class="clips"/></defs><g class="layer-above"><g class="imagelayer"/><g class="shapelayer"><path data-index="0" fill-rule="evenodd" d="M248.50000000000003,419L551.5,116" clip-path="url(#clip19a802xy)" style="opacity: 1; stroke: rgb(42, 63, 95); stroke-opacity: 1; fill: rgb(0, 0, 0); fill-opacity: 0; stroke-dasharray: 9px, 9px; stroke-width: 2px;"/></g></g><g class="infolayer"><g class="g-gtitle"><text class="gtitle" x="40" y="50" text-anchor="start" dy="0em" style="font-family: 'Open Sans', verdana, arial, sans-serif; font-size: 17px; fill: rgb(42, 63, 95); opacity: 1; font-weight: normal; white-space: pre;">ROC Curve (AUC=0.8830)</text></g><g class="g-xtitle"><text class="xtitle" x="400" y="460.3" text-anchor="middle" style="font-family: 'Open Sans', verdana, arial, sans-serif; font-size: 14px; fill: rgb(42, 63, 95); opacity: 1; font-weight: normal; white-space: pre;">False Positive Rate</text></g><g class="g-ytitle"><text class="ytitle" transform="rotate(-90,202.075,260)" x="202.075" y="260" text-anchor="middle" style="font-family: 'Open Sans', verdana, arial, sans-serif; font-size: 14px; fill: rgb(42, 63, 95); opacity: 1; font-weight: normal; white-space: pre;">True Positive Rate</text></g></g></svg>