<svg class="main-svg" xmlns="http://www.w3.org/2000/svg" xmlns:xlink="http://www.w3.org/1999/xlink" width="800" height="500" style="" viewBox="0 0 800 500"><rect x="0" y="0" width="800" height="500" style="fill: rgb(255, 255, 255); fill-opacity: 1;"/><defs id="defs-9c0fd0"><g class="clips"><clipPath id="clip9c0fd0xyplot" class="plotclip"><rect width="304.99999999999994" height="320"/></clipPath><clipPath class="axesclip" id="clip9c0fd0x"><rect x="247.50000000000003" y="0" width="304.99999999999994" height="500"/></clipPath><clipPath class="axesclip" id="clip9c0fd0y"><rect x="0" y="100" width="800" height="320"/></clipPath><clipPath class="axesclip" id="clip9c0fd0xy"><rect x="247.50000000000003" y="100" width="304.99999999999994" height="320"/></clipPath></g><g class="gradients"/><g class="patterns"/></defs><g class="bglayer"><rect class="bg" x="247.50000000000003" y="100" width="304.99999999999994" height="320" style="fill: rgb(229, 236, 246); fill-opacity: 1; stroke-width: 0;"/></g><g class="layer-below"><g class="imagelayer"/><g class="shapelayer"/></g><g class="cartesianlayer"><g class="subplot xy"><g class="layer-subplot"><g class="shapelayer"/><g class="imagelayer"/></g><g class="minor-gridlayer"><g class="x"/><g class="y"/></g><g class="gridlayer"><g class="x"><path class="xgrid crisp" transform="translate(400,0)" d="M0,100v320" style="stroke: rgb(255, 255, 255); stroke-opacity: 1; stroke-width: 1px;"/></g><g class="y"><path class="ygrid crisp" transform="translate(0,358.4)" d="M247.50000000000003,0h304.99999999999994" style="stroke: rgb(255, 255, 255); stroke-opacity: 1; stroke-width: 1px;"/><path class="ygrid crisp" transform="translate(0,297.8)" d="M247.50000000000003,0h304.99999999999994" style="stroke: rgb(255, 255, 255); stroke-opacity: 1; stroke-width: 1px;"/><path class="ygrid crisp" transform="translate(0,237.2)" d="M247.50000000000003,0h304.99999999999994" style="stroke: rgb(255, 255, 255); stroke-opacity: 1; stroke-width: 1px;"/><path class="ygrid crisp" transform="translate(0,176.6)" d="M247.50000000000003,0h304.99999999999994" style="stroke: rgb(255, 255, 255); stroke-opacity: 1; stroke-width: 1px;"/><path class="ygrid crisp" transform="translate(0,116)" d="M247.50000000000003,0h304.99999999999994" style="stroke: rgb(255, 255, 255); stroke-opacity: 1; stroke-width: 1px;"/></g></g><g class="zerolinelayer"><path class="xzl zl crisp" transform="translate(248.50000000000003,0)" d="M0,100v320" style="stroke: rgb(255, 255, 255); stroke-opacity: 1; stroke-width: 2px;"/><path class="yzl zl crisp" transform="translate(0,419)" d="M247.50000000000003,0h304.99999999999994" style="stroke: rgb(255, 255, 255); stroke-opacity: 1; stroke-width: 2px;"/></g><path class="xlines-below"/><path class="ylines-below"/><g class="overlines-below"/><g class="xaxislayer-below"/><g class="yaxislayer-below"/><g class="overaxes-below"/><g class="plot" transform="translate(247.50000000000003,100)" clip-path="url(#clip9c0fd0xyplot)"><g class="scatterlayer mlayer"><g class="trace scatter trace887277" style="stroke-miterlimit: 2;"><g class="fills"><g><path class="js-fill" d="M304,319L1,319L1,319L1.72,266.48L1.87,266.48L2.59,213.97L2.73,213.97L3.46,202.57L3.75,202.57L4.47,195.66L4.61,195.66L5.34,173.2L5.48,173.2L6.2,162.49L6.35,162.49L7.07,158.69L7.51,158.69L8.23,144.18L8.37,144.18L9.1,134.51L9.38,134.51L10.11,129.67L10.25,129.67L10.83,117.58L11.12,117.58L11.55,112.39L11.99,112.39L12.71,106.17L12.85,106.17L13.58,98.23L13.72,98.23L14.44,90.97L14.59,90.97L15.31,83.03L15.46,83.03L16.03,78.19L16.47,78.19L17.19,75.43L17.48,75.43L17.77,73.01L18.64,73.01L19.36,69.9L19.65,69.9L20.08,68.17L20.52,68.17L21.09,65.75L21.53,65.75L21.82,64.71L22.4,64.71L23.12,62.3L23.26,62.3L23.84,59.19L24.27,59.19L25,56.42L25.14,56.42L25.72,54.35L26.3,54.35L26.88,53.31L27.6,53.31L28.18,52.28L28.47,52.28L28.76,51.59L29.62,51.59L30.35,48.48L30.49,48.48L30.49,48.13L31.36,48.13L32.08,46.06L32.95,46.06L33.53,45.37L33.82,45.37L34.25,43.29L35.12,43.29L35.26,42.6L36.42,42.6L37.14,40.53L37.72,40.53L38.3,39.84L40.32,39.84L40.32,39.49L41.77,39.49L42.2,37.42L44.08,37.42L44.08,37.08L45.67,37.08L46.39,35.35L46.97,35.35L47.11,34.66L48.13,34.66L48.27,33.97L48.99,33.97L49.72,32.93L50.44,32.93L50.44,32.24L57.09,32.24L57.09,31.89L60.85,31.89L60.85,31.55L62.44,31.55L63.02,30.86L64.32,30.86L64.32,30.17L65.91,30.17L65.91,29.82L66.92,29.82L67.35,29.13L67.79,29.13L68.08,28.44L70.1,28.44L70.1,28.09L71.83,28.09L71.83,27.75L74,27.75L74.44,27.06L75.02,27.06L75.45,26.02L78.48,26.02L78.92,24.98L85.13,24.98L85.13,24.64L86.44,24.64L86.58,23.95L88.31,23.95L88.6,23.26L92.22,23.26L92.22,22.91L93.37,22.91L93.37,22.56L105.52,22.56L105.52,22.22L114.48,22.22L114.48,21.87L126.62,21.87L127.35,21.18L136.02,21.18L136.02,20.84L137.18,20.84L137.18,20.49L140.79,20.49L140.79,20.15L148.89,20.15L148.89,19.8L180.26,19.8L180.26,19.45L188.5,19.45L188.5,19.11L192.11,19.11L192.11,18.76L196.16,18.76L196.16,18.42L205.84,18.42L205.84,18.07L212.49,18.07L212.49,17.73L233.17,17.73L233.17,17.38L238.66,17.38L238.66,17.04L249.07,17.04L249.07,16.69L271.62,16.69L271.62,16.35L274.08,16.35L274.08,16L304,16" style="fill: rgb(99, 110, 250); fill-opacity: 0.5; stroke-width: 0;"/></g></g><g class="errorbars"/><g class="lines"><path class="js-line" d="M1,319L1.72,266.48L1.87,266.48L2.59,213.97L2.73,213.97L3.46,202.57L3.75,202.57L4.47,195.66L4.61,195.66L5.34,173.2L5.48,173.2L6.2,162.49L6.35,162.49L7.07,158.69L7.51,158.69L8.23,144.18L8.37,144.18L9.1,134.51L9.38,134.51L10.11,129.67L10.25,129.67L10.83,117.58L11.12,117.58L11.55,112.39L11.99,112.39L12.71,106.17L12.85,106.17L13.58,98.23L13.72,98.23L14.44,90.97L14.59,90.97L15.31,83.03L15.46,83.03L16.03,78.19L16.47,78.19L17.19,75.43L17.48,75.43L17.77,73.01L18.64,73.01L19.36,69.9L19.65,69.9L20.08,68.17L20.52,68.17L21.09,65.75L21.53,65.75L21.82,64.71L22.4,64.71L23.12,62.3L23.26,62.3L23.84,59.19L24.27,59.19L25,56.42L25.14,56.42L25.72,54.35L26.3,54.35L26.88,53.31L27.6,53.31L28.18,52.28L28.47,52.28L28.76,51.59L29.62,51.59L30.35,48.48L30.49,48.48L30.49,48.13L31.36,48.13L32.08,46.06L32.95,46.06L33.53,45.37L33.82,45.37L34.25,43.29L35.12,43.29L35.26,42.6L36.42,42.6L37.14,40.53L37.72,40.53L38.3,39.84L40.32,39.84L40.32,39.49L41.77,39.49L42.2,37.42L44.08,37.42L44.08,37.08L45.67,37.08L46.39,35.35L46.97,35.35L47.11,34.66L48.13,34.66L48.27,33.97L48.99,33.97L49.72,32.93L50.44,32.93L50.44,32.24L57.09,32.24L57.09,31.89L60.85,31.89L60.85,31.55L62.44,31.55L63.02,30.86L64.32,30.86L64.32,30.17L65.91,30.17L65.91,29.82L66.92,29.82L67.35,29.13L67.79,29.13L68.08,28.44L70.1,28.44L70.1,28.09L71.83,28.09L71.83,27.75L74,27.75L74.44,27.06L75.02,27.06L75.45,26.02L78.48,26.02L78.92,24.98L85.13,24.98L85.13,24.64L86.44,24.64L86.58,23.95L88.31,23.95L88.6,23.26L92.22,23.26L92.22,22.91L93.37,22.91L93.37,22.56L105.52,22.56L105.52,22.22L114.48,22.22L114.48,21.87L126.62,21.87L127.35,21.18L136.02,21.18L136.02,20.84L137.18,20.84L137.18,20.49L140.79,20.49L140.79,20.15L148.89,20.15L148.89,19.8L180.26,19.8L180.26,19.45L188.5,19.45L188.5,19.11L192.11,19.11L192.11,18.76L196.16,18.76L196.16,18.42L205.84,18.42L205.84,18.07L212.49,18.07L212.49,17.73L233.17,17.73L233.17,17.38L238.66,17.38L238.66,17.04L249.07,17.04L249.07,16.69L271.62,16.69L271.62,16.35L274.08,16.35L274.08,16L304,16" style="vector-effect: non-scaling-stroke; fill: none; stroke: rgb(99, 110, 250); stroke-opacity: 1; stroke-width: 2px; opacity: 1;"/></g><g class="points"/><g class="text"/></g></g></g><g class="overplot"/><path class="xlines-above crisp" d="M0,0" style="fill: none;"/><path class="ylines-above crisp" d="M0,0" style="fill: none;"/><g class="overlines-above"/><g class="xaxislayer-above"><g class="xtick"><text text-anchor="middle" x="0" y="433" transform="translate(248.50000000000003,0)" style="font-family: 'Open Sans', verdana, arial, sans-serif; font-size: 12px; fill: rgb(42, 63, 95); fill-opacity: 1; white-space: pre; opacity: 1;">0</text></g><g class="xtick"><text text-anchor="middle" x="0" y="433" style="font-family: 'Open Sans', verdana, arial, sans-serif; font-size: 12px; fill: rgb(42, 63, 95); fill-opacity: 1; white-space: pre; opacity: 1;" transform="translate(400,0)">0.5</text></g><g class="xtick"><text text-anchor="middle" x="0" y="433" style="font-family: 'Open Sans', verdana, arial, sans-serif; font-size: 12px; fill: rgb(42, 63, 95); fill-opacity: 1; white-space: pre; opacity: 1;" transform="translate(551.5,0)">1</text></g></g><g class="yaxislayer-above"><g class="ytick"><text text-anchor="end" x="246.50000000000003" y="4.199999999999999" transform="translate(0,419)" style="font-family: 'Open Sans', verdana, arial, sans-serif; font-size: 12px; fill: rgb(42, 63, 95); fill-opacity: 1; white-space: pre; opacity: 1;">0</text></g><g class="ytick"><text text-anchor="end" x="246.50000000000003" y="4.199999999999999" style="font-family: 'Open Sans', verdana, arial, sans-serif; font-size: 12px; fill: rgb(42, 63, 95); fill-opacity: 1; white-space: pre; opacity: 1;" transform="translate(0,358.4)">0.2</text></g><g class="ytick"><text text-anchor="end" x="246.50000000000003" y="4.199999999999999" style="font-family: 'Open Sans', verdana, arial, sans-serif; font-size: 12px; fill: rgb(42, 63, 95); fill-opacity: 1; white-space: pre; opacity: 1;" transform="translate(0,297.8)">0.4</text></g><g class="ytick"><text text-anchor="end" x="246.50000000000003" y="4.199999999999999" style="font-family: 'Open Sans', verdana, arial, sans-serif; font-size: 12px; fill: rgb(42, 63, 95); fill-opacity: 1; white-space: pre; opacity: 1;" transform="translate(0,237.2)">0.6</text></g><g class="ytick"><text text-anchor="end" x="246.50000000000003" y="4.199999999999999" style="font-family: 'Open Sans', verdana, arial, sans-serif; font-size: 12px; fill: rgb(42, 63, 95); fill-opacity: 1; white-space: pre; opacity: 1;" transform="translate(0,176.6)">0.8</text></g><g class="ytick"><text text-anchor="end" x="246.50000000000003" y="4.199999999999999" style="font-family: 'Open Sans', verdana, arial, sans-serif; font-size: 12px; fill: rgb(42, 63, 95); fill-opacity: 1; white-space: pre; opacity: 1;" transform="translate(0,116)">1</text></g></g><g class="overaxes-above"/></g></g><g class="polarlayer"/><g class="smithlayer"/><g class="ternarylayer"/><g class="geolayer"/><g class="funnelarealayer"/><g class="pielayer"/><g class="iciclelayer"/><g class="treemaplayer"/><g class="sunburstlayer"/><g class="glimages"/><defs id="topdefs-9c0fd0"><g class="clips"/></defs><g class="layer-above"><g class="imagelayer"/><g class="shapelayer"><path data-index="0" fill-rule="evenodd" d="M248.50000000000003,419L551.5,116" clip-path="url(#clip9c0fd0xy)" style="opacity: 1; stroke: rgb(42, 63, 95); stroke-opacity: 1; fill: rgb(0, 0, 0); fill-opacity: 0; stroke-dasharray: 9px, 9px; stroke-width: 2px;"/></g></g><g class="infolayer"><g class="g-gtitle"><text class="gtitle" x="40" y="50" text-anchor="start" dy="0em" style="font-family: 'Open Sans', verdana, arial, sans-serif; font-size: 17px; fill: rgb(42, 63, 95); opacity: 1; font-weight: normal; white-space: pre;">ROC Curve (AUC=0.9531)</text></g><g class="g-xtitle"><text class="xtitle" x="400" y="460.3" text-anchor="middle" style="font-family: 'Open Sans', verdana, arial, sans-serif; font-size: 14px; fill: rgb(42, 63, 95); opacity: 1; font-weight: normal; white-space: pre;">False Positive Rate</text></g><g class="g-ytitle"><text class="ytitle" transform="rotate(-90,202.075,260)" x="202.075" y="260" text-anchor="middle" style="font-family: 'Open Sans', verdana, arial, sans-serif; font-size: 14px; fill: rgb(42, 63, 95); opacity: 1; font-weight: normal; white-space: pre;">True Positive Rate</text></g></g></svg>