<svg class="main-svg" xmlns="http://www.w3.org/2000/svg" xmlns:xlink="http://www.w3.org/1999/xlink" width="800" height="500" style="" viewBox="0 0 800 500"><rect x="0" y="0" width="800" height="500" style="fill: rgb(255, 255, 255); fill-opacity: 1;"/><defs id="defs-e57bb1"><g class="clips"><clipPath id="clipe57bb1xyplot" class="plotclip"><rect width="304.99999999999994" height="320"/></clipPath><clipPath class="axesclip" id="clipe57bb1x"><rect x="247.50000000000003" y="0" width="304.99999999999994" height="500"/></clipPath><clipPath class="axesclip" id="clipe57bb1y"><rect x="0" y="100" width="800" height="320"/></clipPath><clipPath class="axesclip" id="clipe57bb1xy"><rect x="247.50000000000003" y="100" width="304.99999999999994" height="320"/></clipPath></g><g class="gradients"/><g class="patterns"/></defs><g class="bglayer"><rect class="bg" x="247.50000000000003" y="100" width="304.99999999999994" height="320" style="fill: rgb(229, 236, 246); fill-opacity: 1; stroke-width: 0;"/></g><g class="layer-below"><g class="imagelayer"/><g class="shapelayer"/></g><g class="cartesianlayer"><g class="subplot xy"><g class="layer-subplot"><g class="shapelayer"/><g class="imagelayer"/></g><g class="minor-gridlayer"><g class="x"/><g class="y"/></g><g class="gridlayer"><g class="x"><path class="xgrid crisp" transform="translate(400,0)" d="M0,100v320" style="stroke: rgb(255, 255, 255); stroke-opacity: 1; stroke-width: 1px;"/></g><g class="y"><path class="ygrid crisp" transform="translate(0,358.4)" d="M247.50000000000003,0h304.99999999999994" style="stroke: rgb(255, 255, 255); stroke-opacity: 1; stroke-width: 1px;"/><path class="ygrid crisp" transform="translate(0,297.8)" d="M247.50000000000003,0h304.99999999999994" style="stroke: rgb(255, 255, 255); stroke-opacity: 1; stroke-width: 1px;"/><path class="ygrid crisp" transform="translate(0,237.2)" d="M247.50000000000003,0h304.99999999999994" style="stroke: rgb(255, 255, 255); stroke-opacity: 1; stroke-width: 1px;"/><path class="ygrid crisp" transform="translate(0,176.6)" d="M247.50000000000003,0h304.99999999999994" style="stroke: rgb(255, 255, 255); stroke-opacity: 1; stroke-width: 1px;"/><path class="ygrid crisp" transform="translate(0,116)" d="M247.50000000000003,0h304.99999999999994" style="stroke: rgb(255, 255, 255); stroke-opacity: 1; stroke-width: 1px;"/></g></g><g class="zerolinelayer"><path class="xzl zl crisp" transform="translate(248.50000000000003,0)" d="M0,100v320" style="stroke: rgb(255, 255, 255); stroke-opacity: 1; stroke-width: 2px;"/><path class="yzl zl crisp" transform="translate(0,419)" d="M247.50000000000003,0h304.99999999999994" style="stroke: rgb(255, 255, 255); stroke-opacity: 1; stroke-width: 2px;"/></g><path class="xlines-below"/><path class="ylines-below"/><g class="overlines-below"/><g class="xaxislayer-below"/><g class="yaxislayer-below"/><g class="overaxes-below"/><g class="plot" transform="translate(247.50000000000003,100)" clip-path="url(#clipe57bb1xyplot)"><g class="scatterlayer mlayer"><g class="trace scatter trace9b81c7" style="stroke-miterlimit: 2;"><g class="fills"><g><path class="js-fill" d="M304,319L1,319L1,319L1.73,238.14L1.87,238.14L2.6,201.74L2.74,201.74L3.47,171.45L3.62,171.45L4.34,153.1L4.49,153.1L5.21,147.43L5.36,147.43L5.65,146.99L5.65,140.27L8.27,107.3L8.41,107.3L8.99,102.83L9.28,102.83L9.43,102.68L9.43,101.19L14.22,72.54L14.37,72.54L15.1,69.71L15.24,69.71L15.97,65.38L16.11,65.38L16.84,62.99L16.99,62.99L17.71,61.65L17.71,61.05L18.73,56.58L18.87,56.58L20.47,55.24L20.47,54.94L21.05,54.19L21.05,54.04L21.78,51.81L22.65,51.81L23.09,48.82L23.53,48.82L24.11,47.18L24.54,47.18L25.12,45.69L25.71,45.69L26.14,44.64L26.72,44.64L27.45,42.56L27.59,42.56L27.59,41.96L29.34,41.96L29.92,40.91L30.21,40.91L33.55,37.48L33.55,37.04L35.01,36.29L35.01,36.14L36.75,35.39L36.75,35.25L38.64,34.5L38.64,33.45L39.51,32.41L40.53,32.41L41.11,31.52L42.71,31.52L43.14,31.07L44.16,31.07L44.89,29.58L45.18,29.58L47.5,28.53L47.5,27.64L48.52,27.04L48.52,26.74L49.68,26.59L49.68,25.85L55.5,25.1L55.5,24.95L57.68,24.35L57.68,24.06L63.05,23.31L63.05,23.01L67.85,22.27L67.85,22.12L72.79,21.37L72.79,21.22L83.54,20.48L83.54,20.33L84.71,19.88L97.64,19.88L97.79,19.58L99.97,19.58L117.84,18.39L131.36,18.39L131.36,18.24L137.46,18.24L137.75,17.94L139.93,17.94L139.93,17.79L143.56,17.79L177.71,16.6L213.61,16.6L213.61,16.45L216.22,16.45L251.25,16L304,16" style="fill: rgb(99, 110, 250); fill-opacity: 0.5; stroke-width: 0;"/></g></g><g class="errorbars"/><g class="lines"><path class="js-line" d="M1,319L1.73,238.14L1.87,238.14L2.6,201.74L2.74,201.74L3.47,171.45L3.62,171.45L4.34,153.1L4.49,153.1L5.21,147.43L5.36,147.43L5.65,146.99L5.65,140.27L8.27,107.3L8.41,107.3L8.99,102.83L9.28,102.83L9.43,102.68L9.43,101.19L14.22,72.54L14.37,72.54L15.1,69.71L15.24,69.71L15.97,65.38L16.11,65.38L16.84,62.99L16.99,62.99L17.71,61.65L17.71,61.05L18.73,56.58L18.87,56.58L20.47,55.24L20.47,54.94L21.05,54.19L21.05,54.04L21.78,51.81L22.65,51.81L23.09,48.82L23.53,48.82L24.11,47.18L24.54,47.18L25.12,45.69L25.71,45.69L26.14,44.64L26.72,44.64L27.45,42.56L27.59,42.56L27.59,41.96L29.34,41.96L29.92,40.91L30.21,40.91L33.55,37.48L33.55,37.04L35.01,36.29L35.01,36.14L36.75,35.39L36.75,35.25L38.64,34.5L38.64,33.45L39.51,32.41L40.53,32.41L41.11,31.52L42.71,31.52L43.14,31.07L44.16,31.07L44.89,29.58L45.18,29.58L47.5,28.53L47.5,27.64L48.52,27.04L48.52,26.74L49.68,26.59L49.68,25.85L55.5,25.1L55.5,24.95L57.68,24.35L57.68,24.06L63.05,23.31L63.05,23.01L67.85,22.27L67.85,22.12L72.79,21.37L72.79,21.22L83.54,20.48L83.54,20.33L84.71,19.88L97.64,19.88L97.79,19.58L99.97,19.58L117.84,18.39L131.36,18.39L131.36,18.24L137.46,18.24L137.75,17.94L139.93,17.94L139.93,17.79L143.56,17.79L177.71,16.6L213.61,16.6L213.61,16.45L216.22,16.45L251.25,16L304,16" style="vector-effect: non-scaling-stroke; fill: none; stroke: rgb(99, 110, 250); stroke-opacity: 1; stroke-width: 2px; opacity: 1;"/></g><g class="points"/><g class="text"/></g></g></g><g class="overplot"/><path class="xlines-above crisp" d="M0,0" style="fill: none;"/><path class="ylines-above crisp" d="M0,0" style="fill: none;"/><g class="overlines-above"/><g class="xaxislayer-above"><g class="xtick"><text text-anchor="middle" x="0" y="433" transform="translate(248.50000000000003,0)" style="font-family: 'Open Sans', verdana, arial, sans-serif; font-size: 12px; fill: rgb(42, 63, 95); fill-opacity: 1; white-space: pre; opacity: 1;">0</text></g><g class="xtick"><text text-anchor="middle" x="0" y="433" style="font-family: 'Open Sans', verdana, arial, sans-serif; font-size: 12px; fill: rgb(42, 63, 95); fill-opacity: 1; white-space: pre; opacity: 1;" transform="translate(400,0)">0.5</text></g><g class="xtick"><text text-anchor="middle" x="0" y="433" style="font-family: 'Open Sans', verdana, arial, sans-serif; font-size: 12px; fill: rgb(42, 63, 95); fill-opacity: 1; white-space: pre; opacity: 1;" transform="translate(551.5,0)">1</text></g></g><g class="yaxislayer-above"><g class="ytick"><text text-anchor="end" x="246.50000000000003" y="4.199999999999999" transform="translate(0,419)" style="font-family: 'Open Sans', verdana, arial, sans-serif; font-size: 12px; fill: rgb(42, 63, 95); fill-opacity: 1; white-space: pre; opacity: 1;">0</text></g><g class="ytick"><text text-anchor="end" x="246.50000000000003" y="4.199999999999999" style="font-family: 'Open Sans', verdana, arial, sans-serif; font-size: 12px; fill: rgb(42, 63, 95); fill-opacity: 1; white-space: pre; opacity: 1;" transform="translate(0,358.4)">0.2</text></g><g class="ytick"><text text-anchor="end" x="246.50000000000003" y="4.199999999999999" style="font-family: 'Open Sans', verdana, arial, sans-serif; font-size: 12px; fill: rgb(42, 63, 95); fill-opacity: 1; white-space: pre; opacity: 1;" transform="translate(0,297.8)">0.4</text></g><g class="ytick"><text text-anchor="end" x="246.50000000000003" y="4.199999999999999" style="font-family: 'Open Sans', verdana, arial, sans-serif; font-size: 12px; fill: rgb(42, 63, 95); fill-opacity: 1; white-space: pre; opacity: 1;" transform="translate(0,237.2)">0.6</text></g><g class="ytick"><text text-anchor="end" x="246.50000000000003" y="4.199999999999999" style="font-family: 'Open Sans', verdana, arial, sans-serif; font-size: 12px; fill: rgb(42, 63, 95); fill-opacity: 1; white-space: pre; opacity: 1;" transform="translate(0,176.6)">0.8</text></g><g class="ytick"><text text-anchor="end" x="246.50000000000003" y="4.199999999999999" style="font-family: 'Open Sans', verdana, arial, sans-serif; font-size: 12px; fill: rgb(42, 63, 95); fill-opacity: 1; white-space: pre; opacity: 1;" transform="translate(0,116)">1</text></g></g><g class="overaxes-above"/></g></g><g class="polarlayer"/><g class="smithlayer"/><g class="ternarylayer"/><g class="geolayer"/><g class="funnelarealayer"/><g class="pielayer"/><g class="iciclelayer"/><g class="treemaplayer"/><g class="sunburstlayer"/><g class="glimages"/><defs id="topdefs-e57bb1"><g class="clips"/></defs><g class="layer-above"><g class="imagelayer"/><g class="shapelayer"><path data-index="0" fill-rule="evenodd" d="M248.50000000000003,419L551.5,116" clip-path="url(#clipe57bb1xy)" style="opacity: 1; stroke: rgb(42, 63, 95); stroke-opacity: 1; fill: rgb(0, 0, 0); fill-opacity: 0; stroke-dasharray: 9px, 9px; stroke-width: 2px;"/></g></g><g class="infolayer"><g class="g-gtitle"><text class="gtitle" x="40" y="50" text-anchor="start" dy="0em" style="font-family: 'Open Sans', verdana, arial, sans-serif; font-size: 17px; fill: rgb(42, 63, 95); opacity: 1; font-weight: normal; white-space: pre;">ROC Curve (AUC=0.9683)</text></g><g class="g-xtitle"><text class="xtitle" x="400" y="460.3" text-anchor="middle" style="font-family: 'Open Sans', verdana, arial, sans-serif; font-size: 14px; fill: rgb(42, 63, 95); opacity: 1; font-weight: normal; white-space: pre;">False Positive Rate</text></g><g class="g-ytitle"><text class="ytitle" transform="rotate(-90,202.075,260)" x="202.075" y="260" text-anchor="middle" style="font-family: 'Open Sans', verdana, arial, sans-serif; font-size: 14px; fill: rgb(42, 63, 95); opacity: 1; font-weight: normal; white-space: pre;">True Positive Rate</text></g></g></svg>