<svg class="main-svg" xmlns="http://www.w3.org/2000/svg" xmlns:xlink="http://www.w3.org/1999/xlink" width="800" height="500" style="" viewBox="0 0 800 500"><rect x="0" y="0" width="800" height="500" style="fill: rgb(255, 255, 255); fill-opacity: 1;"/><defs id="defs-7998a1"><g class="clips"><clipPath id="clip7998a1xyplot" class="plotclip"><rect width="304.99999999999994" height="320"/></clipPath><clipPath class="axesclip" id="clip7998a1x"><rect x="247.50000000000003" y="0" width="304.99999999999994" height="500"/></clipPath><clipPath class="axesclip" id="clip7998a1y"><rect x="0" y="100" width="800" height="320"/></clipPath><clipPath class="axesclip" id="clip7998a1xy"><rect x="247.50000000000003" y="100" width="304.99999999999994" height="320"/></clipPath></g><g class="gradients"/><g class="patterns"/></defs><g class="bglayer"><rect class="bg" x="247.50000000000003" y="100" width="304.99999999999994" height="320" style="fill: rgb(229, 236, 246); fill-opacity: 1; stroke-width: 0;"/></g><g class="layer-below"><g class="imagelayer"/><g class="shapelayer"/></g><g class="cartesianlayer"><g class="subplot xy"><g class="layer-subplot"><g class="shapelayer"/><g class="imagelayer"/></g><g class="minor-gridlayer"><g class="x"/><g class="y"/></g><g class="gridlayer"><g class="x"><path class="xgrid crisp" transform="translate(400,0)" d="M0,100v320" style="stroke: rgb(255, 255, 255); stroke-opacity: 1; stroke-width: 1px;"/></g><g class="y"><path class="ygrid crisp" transform="translate(0,358.4)" d="M247.50000000000003,0h304.99999999999994" style="stroke: rgb(255, 255, 255); stroke-opacity: 1; stroke-width: 1px;"/><path class="ygrid crisp" transform="translate(0,297.8)" d="M247.50000000000003,0h304.99999999999994" style="stroke: rgb(255, 255, 255); stroke-opacity: 1; stroke-width: 1px;"/><path class="ygrid crisp" transform="translate(0,237.2)" d="M247.50000000000003,0h304.99999999999994" style="stroke: rgb(255, 255, 255); stroke-opacity: 1; stroke-width: 1px;"/><path class="ygrid crisp" transform="translate(0,176.6)" d="M247.50000000000003,0h304.99999999999994" style="stroke: rgb(255, 255, 255); stroke-opacity: 1; stroke-width: 1px;"/><path class="ygrid crisp" transform="translate(0,116)" d="M247.50000000000003,0h304.99999999999994" style="stroke: rgb(255, 255, 255); stroke-opacity: 1; stroke-width: 1px;"/></g></g><g class="zerolinelayer"><path class="xzl zl crisp" transform="translate(248.50000000000003,0)" d="M0,100v320" style="stroke: rgb(255, 255, 255); stroke-opacity: 1; stroke-width: 2px;"/><path class="yzl zl crisp" transform="translate(0,419)" d="M247.50000000000003,0h304.99999999999994" style="stroke: rgb(255, 255, 255); stroke-opacity: 1; stroke-width: 2px;"/></g><path class="xlines-below"/><path class="ylines-below"/><g class="overlines-below"/><g class="xaxislayer-below"/><g class="yaxislayer-below"/><g class="overaxes-below"/><g class="plot" transform="translate(247.50000000000003,100)" clip-path="url(#clip7998a1xyplot)"><g class="scatterlayer mlayer"><g class="trace scatter trace5002d2" style="stroke-miterlimit: 2;"><g class="fills"><g><path class="js-fill" d="M304,319L1,319L1,319L2.02,272.16L2.16,272.16L2.89,251.12L3.03,251.12L3.76,238.74L3.91,238.74L4.63,217.4L4.78,217.4L5.51,192.49L5.65,192.49L6.38,176.82L6.52,176.82L7.25,157.58L7.39,157.58L8.12,143.26L8.41,143.26L9.14,129.68L9.28,129.68L10.01,115.21L10.16,115.21L10.88,108.5L11.03,108.5L11.75,101.93L11.9,101.93L12.63,91.94L12.92,91.94L13.5,84.92L13.79,84.92L14.52,81.19L14.66,81.19L15.39,75.23L15.53,75.23L16.26,71.8L16.4,71.8L17.13,68.22L17.28,68.22L18,65.68L18.15,65.68L18.73,65.08L19.02,65.08L19.75,63.29L19.89,63.29L20.62,62.4L21.2,62.4L21.78,60.91L22.07,60.91L22.36,60.31L22.94,60.31L23.67,59.26L23.82,59.26L25.56,58.07L26,58.07L26.72,57.18L26.72,56.73L28.18,55.98L28.18,55.39L29.77,53.89L30.65,53.89L31.08,52.85L31.66,52.85L38.35,48.82L38.35,48.52L40.24,47.78L40.24,47.63L45.18,42.85L45.47,42.85L46.05,42.26L46.49,42.26L47.07,41.21L47.5,41.21L48.23,39.87L48.38,39.87L48.81,38.68L49.25,38.68L50.41,37.78L50.99,37.78L51.72,36.74L52.44,36.74L54.92,34.2L56.22,34.2L56.51,33.45L57.68,33.45L58.4,32.71L58.69,32.71L61.16,30.47L61.75,30.47L61.89,30.02L63.05,30.02L65.81,29.28L67.27,29.28L67.27,29.13L68.14,29.13L68.87,28.53L69.01,28.53L69.3,28.08L69.88,28.08L70.32,27.49L71.05,27.49L71.77,26.14L71.92,26.14L72.21,25.85L74.53,25.85L75.26,25.4L75.55,25.4L75.84,25.1L78.02,25.1L78.75,24.5L79.47,24.5L79.91,24.06L81.36,24.06L97.35,22.12L100.11,22.12L100.11,21.97L104.47,21.97L136.59,20.48L142.84,20.48L142.84,20.33L148.36,20.33L175.82,19.58L175.82,19.28L192.39,18.54L192.39,18.39L230.9,17.79L230.9,17.49L267.96,16.75L267.96,16.6L304,16" style="fill: rgb(99, 110, 250); fill-opacity: 0.5; stroke-width: 0;"/></g></g><g class="errorbars"/><g class="lines"><path class="js-line" d="M1,319L2.02,272.16L2.16,272.16L2.89,251.12L3.03,251.12L3.76,238.74L3.91,238.74L4.63,217.4L4.78,217.4L5.51,192.49L5.65,192.49L6.38,176.82L6.52,176.82L7.25,157.58L7.39,157.58L8.12,143.26L8.41,143.26L9.14,129.68L9.28,129.68L10.01,115.21L10.16,115.21L10.88,108.5L11.03,108.5L11.75,101.93L11.9,101.93L12.63,91.94L12.92,91.94L13.5,84.92L13.79,84.92L14.52,81.19L14.66,81.19L15.39,75.23L15.53,75.23L16.26,71.8L16.4,71.8L17.13,68.22L17.28,68.22L18,65.68L18.15,65.68L18.73,65.08L19.02,65.08L19.75,63.29L19.89,63.29L20.62,62.4L21.2,62.4L21.78,60.91L22.07,60.91L22.36,60.31L22.94,60.31L23.67,59.26L23.82,59.26L25.56,58.07L26,58.07L26.72,57.18L26.72,56.73L28.18,55.98L28.18,55.39L29.77,53.89L30.65,53.89L31.08,52.85L31.66,52.85L38.35,48.82L38.35,48.52L40.24,47.78L40.24,47.63L45.18,42.85L45.47,42.85L46.05,42.26L46.49,42.26L47.07,41.21L47.5,41.21L48.23,39.87L48.38,39.87L48.81,38.68L49.25,38.68L50.41,37.78L50.99,37.78L51.72,36.74L52.44,36.74L54.92,34.2L56.22,34.2L56.51,33.45L57.68,33.45L58.4,32.71L58.69,32.71L61.16,30.47L61.75,30.47L61.89,30.02L63.05,30.02L65.81,29.28L67.27,29.28L67.27,29.13L68.14,29.13L68.87,28.53L69.01,28.53L69.3,28.08L69.88,28.08L70.32,27.49L71.05,27.49L71.77,26.14L71.92,26.14L72.21,25.85L74.53,25.85L75.26,25.4L75.55,25.4L75.84,25.1L78.02,25.1L78.75,24.5L79.47,24.5L79.91,24.06L81.36,24.06L97.35,22.12L100.11,22.12L100.11,21.97L104.47,21.97L136.59,20.48L142.84,20.48L142.84,20.33L148.36,20.33L175.82,19.58L175.82,19.28L192.39,18.54L192.39,18.39L230.9,17.79L230.9,17.49L267.96,16.75L267.96,16.6L304,16" style="vector-effect: non-scaling-stroke; fill: none; stroke: rgb(99, 110, 250); stroke-opacity: 1; stroke-width: 2px; opacity: 1;"/></g><g class="points"/><g class="text"/></g></g></g><g class="overplot"/><path class="xlines-above crisp" d="M0,0" style="fill: none;"/><path class="ylines-above crisp" d="M0,0" style="fill: none;"/><g class="overlines-above"/><g class="xaxislayer-above"><g class="xtick"><text text-anchor="middle" x="0" y="433" transform="translate(248.50000000000003,0)" style="font-family: 'Open Sans', verdana, arial, sans-serif; font-size: 12px; fill: rgb(42, 63, 95); fill-opacity: 1; white-space: pre; opacity: 1;">0</text></g><g class="xtick"><text text-anchor="middle" x="0" y="433" style="font-family: 'Open Sans', verdana, arial, sans-serif; font-size: 12px; fill: rgb(42, 63, 95); fill-opacity: 1; white-space: pre; opacity: 1;" transform="translate(400,0)">0.5</text></g><g class="xtick"><text text-anchor="middle" x="0" y="433" style="font-family: 'Open Sans', verdana, arial, sans-serif; font-size: 12px; fill: rgb(42, 63, 95); fill-opacity: 1; white-space: pre; opacity: 1;" transform="translate(551.5,0)">1</text></g></g><g class="yaxislayer-above"><g class="ytick"><text text-anchor="end" x="246.50000000000003" y="4.199999999999999" transform="translate(0,419)" style="font-family: 'Open Sans', verdana, arial, sans-serif; font-size: 12px; fill: rgb(42, 63, 95); fill-opacity: 1; white-space: pre; opacity: 1;">0</text></g><g class="ytick"><text text-anchor="end" x="246.50000000000003" y="4.199999999999999" style="font-family: 'Open Sans', verdana, arial, sans-serif; font-size: 12px; fill: rgb(42, 63, 95); fill-opacity: 1; white-space: pre; opacity: 1;" transform="translate(0,358.4)">0.2</text></g><g class="ytick"><text text-anchor="end" x="246.50000000000003" y="4.199999999999999" style="font-family: 'Open Sans', verdana, arial, sans-serif; font-size: 12px; fill: rgb(42, 63, 95); fill-opacity: 1; white-space: pre; opacity: 1;" transform="translate(0,297.8)">0.4</text></g><g class="ytick"><text text-anchor="end" x="246.50000000000003" y="4.199999999999999" style="font-family: 'Open Sans', verdana, arial, sans-serif; font-size: 12px; fill: rgb(42, 63, 95); fill-opacity: 1; white-space: pre; opacity: 1;" transform="translate(0,237.2)">0.6</text></g><g class="ytick"><text text-anchor="end" x="246.50000000000003" y="4.199999999999999" style="font-family: 'Open Sans', verdana, arial, sans-serif; font-size: 12px; fill: rgb(42, 63, 95); fill-opacity: 1; white-space: pre; opacity: 1;" transform="translate(0,176.6)">0.8</text></g><g class="ytick"><text text-anchor="end" x="246.50000000000003" y="4.199999999999999" style="font-family: 'Open Sans', verdana, arial, sans-serif; font-size: 12px; fill: rgb(42, 63, 95); fill-opacity: 1; white-space: pre; opacity: 1;" transform="translate(0,116)">1</text></g></g><g class="overaxes-above"/></g></g><g class="polarlayer"/><g class="smithlayer"/><g class="ternarylayer"/><g class="geolayer"/><g class="funnelarealayer"/><g class="pielayer"/><g class="iciclelayer"/><g class="treemaplayer"/><g class="sunburstlayer"/><g class="glimages"/><defs id="topdefs-7998a1"><g class="clips"/></defs><g class="layer-above"><g class="imagelayer"/><g class="shapelayer"><path data-index="0" fill-rule="evenodd" d="M248.50000000000003,419L551.5,116" clip-path="url(#clip7998a1xy)" style="opacity: 1; stroke: rgb(42, 63, 95); stroke-opacity: 1; fill: rgb(0, 0, 0); fill-opacity: 0; stroke-dasharray: 9px, 9px; stroke-width: 2px;"/></g></g><g class="infolayer"><g class="g-gtitle"><text class="gtitle" x="40" y="50" text-anchor="start" dy="0em" style="font-family: 'Open Sans', verdana, arial, sans-serif; font-size: 17px; fill: rgb(42, 63, 95); opacity: 1; font-weight: normal; white-space: pre;">ROC Curve (AUC=0.9515)</text></g><g class="g-xtitle"><text class="xtitle" x="400" y="460.3" text-anchor="middle" style="font-family: 'Open Sans', verdana, arial, sans-serif; font-size: 14px; fill: rgb(42, 63, 95); opacity: 1; font-weight: normal; white-space: pre;">False Positive Rate</text></g><g class="g-ytitle"><text class="ytitle" transform="rotate(-90,202.075,260)" x="202.075" y="260" text-anchor="middle" style="font-family: 'Open Sans', verdana, arial, sans-serif; font-size: 14px; fill: rgb(42, 63, 95); opacity: 1; font-weight: normal; white-space: pre;">True Positive Rate</text></g></g></svg>