<svg class="main-svg" xmlns="http://www.w3.org/2000/svg" xmlns:xlink="http://www.w3.org/1999/xlink" width="800" height="500" style="" viewBox="0 0 800 500"><rect x="0" y="0" width="800" height="500" style="fill: rgb(255, 255, 255); fill-opacity: 1;"/><defs id="defs-1a83a0"><g class="clips"><clipPath id="clip1a83a0xyplot" class="plotclip"><rect width="304.99999999999994" height="320"/></clipPath><clipPath class="axesclip" id="clip1a83a0x"><rect x="247.50000000000003" y="0" width="304.99999999999994" height="500"/></clipPath><clipPath class="axesclip" id="clip1a83a0y"><rect x="0" y="100" width="800" height="320"/></clipPath><clipPath class="axesclip" id="clip1a83a0xy"><rect x="247.50000000000003" y="100" width="304.99999999999994" height="320"/></clipPath></g><g class="gradients"/><g class="patterns"/></defs><g class="bglayer"><rect class="bg" x="247.50000000000003" y="100" width="304.99999999999994" height="320" style="fill: rgb(229, 236, 246); fill-opacity: 1; stroke-width: 0;"/></g><g class="layer-below"><g class="imagelayer"/><g class="shapelayer"/></g><g class="cartesianlayer"><g class="subplot xy"><g class="layer-subplot"><g class="shapelayer"/><g class="imagelayer"/></g><g class="minor-gridlayer"><g class="x"/><g class="y"/></g><g class="gridlayer"><g class="x"><path class="xgrid crisp" transform="translate(400,0)" d="M0,100v320" style="stroke: rgb(255, 255, 255); stroke-opacity: 1; stroke-width: 1px;"/></g><g class="y"><path class="ygrid crisp" transform="translate(0,358.4)" d="M247.50000000000003,0h304.99999999999994" style="stroke: rgb(255, 255, 255); stroke-opacity: 1; stroke-width: 1px;"/><path class="ygrid crisp" transform="translate(0,297.8)" d="M247.50000000000003,0h304.99999999999994" style="stroke: rgb(255, 255, 255); stroke-opacity: 1; stroke-width: 1px;"/><path class="ygrid crisp" transform="translate(0,237.2)" d="M247.50000000000003,0h304.99999999999994" style="stroke: rgb(255, 255, 255); stroke-opacity: 1; stroke-width: 1px;"/><path class="ygrid crisp" transform="translate(0,176.6)" d="M247.50000000000003,0h304.99999999999994" style="stroke: rgb(255, 255, 255); stroke-opacity: 1; stroke-width: 1px;"/><path class="ygrid crisp" transform="translate(0,116)" d="M247.50000000000003,0h304.99999999999994" style="stroke: rgb(255, 255, 255); stroke-opacity: 1; stroke-width: 1px;"/></g></g><g class="zerolinelayer"><path class="xzl zl crisp" transform="translate(248.50000000000003,0)" d="M0,100v320" style="stroke: rgb(255, 255, 255); stroke-opacity: 1; stroke-width: 2px;"/><path class="yzl zl crisp" transform="translate(0,419)" d="M247.50000000000003,0h304.99999999999994" style="stroke: rgb(255, 255, 255); stroke-opacity: 1; stroke-width: 2px;"/></g><path class="xlines-below"/><path class="ylines-below"/><g class="overlines-below"/><g class="xaxislayer-below"/><g class="yaxislayer-below"/><g class="overaxes-below"/><g class="plot" transform="translate(247.50000000000003,100)" clip-path="url(#clip1a83a0xyplot)"><g class="scatterlayer mlayer"><g class="trace scatter trace02de51" style="stroke-miterlimit: 2;"><g class="fills"><g><path class="js-fill" d="M304,319L1,319L1,319L2.45,248.86L2.59,248.86L3.31,234.7L3.46,234.7L4.18,219.15L4.32,219.15L5.05,201.88L5.19,201.88L5.92,189.09L6.06,189.09L6.78,179.77L6.93,179.77L7.65,175.27L7.79,175.27L8.52,156.27L8.66,156.27L9.38,146.6L9.67,146.6L10.4,136.58L10.54,136.58L11.26,123.1L11.41,123.1L12.13,111.01L12.42,111.01L13.14,101.68L13.29,101.68L13.87,93.05L14.16,93.05L14.88,87.17L15.17,87.17L15.89,80.95L16.03,80.95L16.61,76.46L16.9,76.46L17.62,72.66L17.91,72.66L18.64,67.82L19.21,67.82L19.94,65.06L20.66,65.06L21.38,63.33L21.53,63.33L21.82,62.64L23.55,62.64L24.13,58.84L26.44,58.84L27.17,57.81L27.74,57.81L28.47,56.77L29.48,56.77L29.48,56.42L30.78,56.42L30.78,55.04L31.65,55.04L31.65,54.35L34.39,54.35L35.12,51.93L36.13,51.93L36.42,50.55L38.01,50.55L38.44,49.17L39.89,49.17L40.61,47.79L40.75,47.79L41.33,46.4L41.91,46.4L41.91,45.71L42.92,45.71L42.92,45.37L45.24,45.37L45.24,45.02L47.69,45.02L48.27,43.99L49.28,43.99L49.86,42.6L50.3,42.6L51.02,40.88L51.16,40.88L51.16,39.84L52.17,39.84L52.75,38.46L53.04,38.46L53.62,37.42L54.2,37.42L54.2,37.08L55.5,37.08L55.5,36.38L57.52,36.38L57.52,36.04L58.68,36.04L58.82,35.35L59.98,35.35L59.98,35L61.43,35L61.43,34.31L63.45,34.31L63.74,32.93L65.19,32.93L65.19,32.58L66.05,32.58L66.2,31.55L67.06,31.55L67.64,30.86L68.65,30.86L68.65,30.17L69.52,30.17L69.96,29.47L71.83,29.47L72.56,28.44L74.15,28.44L74.29,27.75L76.17,27.75L76.46,27.06L78.05,27.06L78.77,25.67L79.06,25.67L79.06,25.33L79.93,25.33L79.93,24.98L86,24.98L86,24.64L88.46,24.64L88.46,24.29L91.78,24.29L91.78,23.95L93.37,23.95L93.66,23.26L108.7,23.26L108.7,22.91L111.44,22.91L111.44,22.56L114.05,22.56L114.05,22.22L126.19,22.22L126.19,21.87L140.79,21.87L140.79,21.53L142.38,21.53L142.38,21.18L150.62,21.18L150.62,20.84L157.7,20.84L157.7,20.49L164.06,20.49L164.06,20.15L172.59,20.15L172.59,19.8L177.94,19.8L177.94,19.45L190.09,19.45L190.09,19.11L203.53,19.11L203.53,18.76L205.7,18.76L205.7,18.42L225.94,18.42L225.94,18.07L233.74,18.07L233.74,17.73L236.63,17.73L236.63,17.38L249.65,17.38L249.65,17.04L256.44,17.04L256.44,16.69L261.21,16.69L261.21,16.35L270.75,16.35L270.75,16L289.4,16L304,16" style="fill: rgb(99, 110, 250); fill-opacity: 0.5; stroke-width: 0;"/></g></g><g class="errorbars"/><g class="lines"><path class="js-line" d="M1,319L2.45,248.86L2.59,248.86L3.31,234.7L3.46,234.7L4.18,219.15L4.32,219.15L5.05,201.88L5.19,201.88L5.92,189.09L6.06,189.09L6.78,179.77L6.93,179.77L7.65,175.27L7.79,175.27L8.52,156.27L8.66,156.27L9.38,146.6L9.67,146.6L10.4,136.58L10.54,136.58L11.26,123.1L11.41,123.1L12.13,111.01L12.42,111.01L13.14,101.68L13.29,101.68L13.87,93.05L14.16,93.05L14.88,87.17L15.17,87.17L15.89,80.95L16.03,80.95L16.61,76.46L16.9,76.46L17.62,72.66L17.91,72.66L18.64,67.82L19.21,67.82L19.94,65.06L20.66,65.06L21.38,63.33L21.53,63.33L21.82,62.64L23.55,62.64L24.13,58.84L26.44,58.84L27.17,57.81L27.74,57.81L28.47,56.77L29.48,56.77L29.48,56.42L30.78,56.42L30.78,55.04L31.65,55.04L31.65,54.35L34.39,54.35L35.12,51.93L36.13,51.93L36.42,50.55L38.01,50.55L38.44,49.17L39.89,49.17L40.61,47.79L40.75,47.79L41.33,46.4L41.91,46.4L41.91,45.71L42.92,45.71L42.92,45.37L45.24,45.37L45.24,45.02L47.69,45.02L48.27,43.99L49.28,43.99L49.86,42.6L50.3,42.6L51.02,40.88L51.16,40.88L51.16,39.84L52.17,39.84L52.75,38.46L53.04,38.46L53.62,37.42L54.2,37.42L54.2,37.08L55.5,37.08L55.5,36.38L57.52,36.38L57.52,36.04L58.68,36.04L58.82,35.35L59.98,35.35L59.98,35L61.43,35L61.43,34.31L63.45,34.31L63.74,32.93L65.19,32.93L65.19,32.58L66.05,32.58L66.2,31.55L67.06,31.55L67.64,30.86L68.65,30.86L68.65,30.17L69.52,30.17L69.96,29.47L71.83,29.47L72.56,28.44L74.15,28.44L74.29,27.75L76.17,27.75L76.46,27.06L78.05,27.06L78.77,25.67L79.06,25.67L79.06,25.33L79.93,25.33L79.93,24.98L86,24.98L86,24.64L88.46,24.64L88.46,24.29L91.78,24.29L91.78,23.95L93.37,23.95L93.66,23.26L108.7,23.26L108.7,22.91L111.44,22.91L111.44,22.56L114.05,22.56L114.05,22.22L126.19,22.22L126.19,21.87L140.79,21.87L140.79,21.53L142.38,21.53L142.38,21.18L150.62,21.18L150.62,20.84L157.7,20.84L157.7,20.49L164.06,20.49L164.06,20.15L172.59,20.15L172.59,19.8L177.94,19.8L177.94,19.45L190.09,19.45L190.09,19.11L203.53,19.11L203.53,18.76L205.7,18.76L205.7,18.42L225.94,18.42L225.94,18.07L233.74,18.07L233.74,17.73L236.63,17.73L236.63,17.38L249.65,17.38L249.65,17.04L256.44,17.04L256.44,16.69L261.21,16.69L261.21,16.35L270.75,16.35L270.75,16L289.4,16L304,16" style="vector-effect: non-scaling-stroke; fill: none; stroke: rgb(99, 110, 250); stroke-opacity: 1; stroke-width: 2px; opacity: 1;"/></g><g class="points"/><g class="text"/></g></g></g><g class="overplot"/><path class="xlines-above crisp" d="M0,0" style="fill: none;"/><path class="ylines-above crisp" d="M0,0" style="fill: none;"/><g class="overlines-above"/><g class="xaxislayer-above"><g class="xtick"><text text-anchor="middle" x="0" y="433" transform="translate(248.50000000000003,0)" style="font-family: 'Open Sans', verdana, arial, sans-serif; font-size: 12px; fill: rgb(42, 63, 95); fill-opacity: 1; white-space: pre; opacity: 1;">0</text></g><g class="xtick"><text text-anchor="middle" x="0" y="433" style="font-family: 'Open Sans', verdana, arial, sans-serif; font-size: 12px; fill: rgb(42, 63, 95); fill-opacity: 1; white-space: pre; opacity: 1;" transform="translate(400,0)">0.5</text></g><g class="xtick"><text text-anchor="middle" x="0" y="433" style="font-family: 'Open Sans', verdana, arial, sans-serif; font-size: 12px; fill: rgb(42, 63, 95); fill-opacity: 1; white-space: pre; opacity: 1;" transform="translate(551.5,0)">1</text></g></g><g class="yaxislayer-above"><g class="ytick"><text text-anchor="end" x="246.50000000000003" y="4.199999999999999" transform="translate(0,419)" style="font-family: 'Open Sans', verdana, arial, sans-serif; font-size: 12px; fill: rgb(42, 63, 95); fill-opacity: 1; white-space: pre; opacity: 1;">0</text></g><g class="ytick"><text text-anchor="end" x="246.50000000000003" y="4.199999999999999" style="font-family: 'Open Sans', verdana, arial, sans-serif; font-size: 12px; fill: rgb(42, 63, 95); fill-opacity: 1; white-space: pre; opacity: 1;" transform="translate(0,358.4)">0.2</text></g><g class="ytick"><text text-anchor="end" x="246.50000000000003" y="4.199999999999999" style="font-family: 'Open Sans', verdana, arial, sans-serif; font-size: 12px; fill: rgb(42, 63, 95); fill-opacity: 1; white-space: pre; opacity: 1;" transform="translate(0,297.8)">0.4</text></g><g class="ytick"><text text-anchor="end" x="246.50000000000003" y="4.199999999999999" style="font-family: 'Open Sans', verdana, arial, sans-serif; font-size: 12px; fill: rgb(42, 63, 95); fill-opacity: 1; white-space: pre; opacity: 1;" transform="translate(0,237.2)">0.6</text></g><g class="ytick"><text text-anchor="end" x="246.50000000000003" y="4.199999999999999" style="font-family: 'Open Sans', verdana, arial, sans-serif; font-size: 12px; fill: rgb(42, 63, 95); fill-opacity: 1; white-space: pre; opacity: 1;" transform="translate(0,176.6)">0.8</text></g><g class="ytick"><text text-anchor="end" x="246.50000000000003" y="4.199999999999999" style="font-family: 'Open Sans', verdana, arial, sans-serif; font-size: 12px; fill: rgb(42, 63, 95); fill-opacity: 1; white-space: pre; opacity: 1;" transform="translate(0,116)">1</text></g></g><g class="overaxes-above"/></g></g><g class="polarlayer"/><g class="smithlayer"/><g class="ternarylayer"/><g class="geolayer"/><g class="funnelarealayer"/><g class="pielayer"/><g class="iciclelayer"/><g class="treemaplayer"/><g class="sunburstlayer"/><g class="glimages"/><defs id="topdefs-1a83a0"><g class="clips"/></defs><g class="layer-above"><g class="imagelayer"/><g class="shapelayer"><path data-index="0" fill-rule="evenodd" d="M248.50000000000003,419L551.5,116" clip-path="url(#clip1a83a0xy)" style="opacity: 1; stroke: rgb(42, 63, 95); stroke-opacity: 1; fill: rgb(0, 0, 0); fill-opacity: 0; stroke-dasharray: 9px, 9px; stroke-width: 2px;"/></g></g><g class="infolayer"><g class="g-gtitle"><text class="gtitle" x="40" y="50" text-anchor="start" dy="0em" style="font-family: 'Open Sans', verdana, arial, sans-serif; font-size: 17px; fill: rgb(42, 63, 95); opacity: 1; font-weight: normal; white-space: pre;">ROC Curve (AUC=0.9472)</text></g><g class="g-xtitle"><text class="xtitle" x="400" y="460.3" text-anchor="middle" style="font-family: 'Open Sans', verdana, arial, sans-serif; font-size: 14px; fill: rgb(42, 63, 95); opacity: 1; font-weight: normal; white-space: pre;">False Positive Rate</text></g><g class="g-ytitle"><text class="ytitle" transform="rotate(-90,202.075,260)" x="202.075" y="260" text-anchor="middle" style="font-family: 'Open Sans', verdana, arial, sans-serif; font-size: 14px; fill: rgb(42, 63, 95); opacity: 1; font-weight: normal; white-space: pre;">True Positive Rate</text></g></g></svg>